<?xml version="1.0" encoding="utf-8"?>
<!-- Generator: Adobe Illustrator 16.0.0, SVG Export Plug-In . SVG Version: 6.00 Build 0)  -->
<!DOCTYPE svg PUBLIC "-//W3C//DTD SVG 1.1//EN" "http://www.w3.org/Graphics/SVG/1.1/DTD/svg11.dtd">
<svg version="1.1" id="Layer_1" xmlns="http://www.w3.org/2000/svg" xmlns:xlink="http://www.w3.org/1999/xlink" x="0px" y="0px"
	 width="229px" height="278.484px" viewBox="0 0 229 278.484" enable-background="new 0 0 229 278.484" xml:space="preserve">
<g>
	<polygon points="125.098,4 139.064,4.033 138.997,158.652 192.68,104.925 210.197,104.931 155.012,160.58 224.1,229.617 
		205.27,229.719 145.613,169.848 139.203,176.258 139.203,229.947 125.234,229.947 	"/>
	<path d="M68.205,99.729c17.263,0,32.926,6.846,44.428,17.968l-9.948,7.396c-9.16-8.17-21.239-13.138-34.48-13.138
		c-28.625,0-51.829,23.204-51.829,51.828c0,28.625,23.204,51.83,51.829,51.83c13.459,0,25.718-5.131,34.932-13.541l9.771,7.264
		c-11.526,11.279-27.301,18.236-44.703,18.236c-35.303,0-63.921-28.617-63.921-63.922C4.284,128.348,32.902,99.729,68.205,99.729
		L68.205,99.729z"/>
</g>
<polygon points="96.814,246.336 100.135,246.336 100.135,240.791 96.814,240.791 "/>
<polygon points="195.461,246.445 198.729,246.445 198.729,240.791 195.461,240.791 "/>
<g>
	<path d="M21.965,272.41c-7.686,0-14.246-6.973-14.246-14.574c0-7.576,6.423-14.684,14.19-14.684c5.105,0,8.783,2.469,11.775,6.34
		h3.76l0,0c-1.125-2.031-2.333-3.898-4.172-5.354c-3.157-2.552-7.246-4.062-11.308-4.062c-9.744,0-17.677,8.043-17.677,17.732
		c0,9.715,8.042,17.676,17.731,17.676c3.952,0,7.822-1.455,10.924-3.898c1.948-1.563,3.321-3.596,4.638-5.682h-3.76l0,0
		C30.857,269.775,27.069,272.41,21.965,272.41L21.965,272.41L21.965,272.41z"/>
	<path d="M60.94,253.883c-2.36-3.047-5.572-4.967-9.551-4.967c-7.137,0-13.01,5.791-13.01,12.928c0,7.136,5.901,12.982,13.01,12.982
		c4.145,0,7.026-1.729,9.551-4.914v4.338h3.102V249.52H60.94V253.883L60.94,253.883z M51.224,271.971
		c-5.462,0-9.771-4.748-9.771-10.103c0-5.324,4.282-10.1,9.771-10.1c5.462,0,9.716,4.774,9.716,10.1
		C60.94,267.223,56.658,271.971,51.224,271.971L51.224,271.971L51.224,271.971z"/>
	<polygon points="67.802,274.25 71.123,274.25 71.123,240.791 67.802,240.791 	"/>
	<polygon points="83.667,270.324 75.268,249.52 71.974,249.52 82.047,274.25 85.396,274.25 95.441,249.52 92.203,249.52 
		83.667,270.324 	"/>
	<polygon points="96.814,274.25 100.135,274.25 100.135,249.52 96.814,249.52 	"/>
	<path d="M114.436,248.916c-3.129,0-5.352,1.646-7.411,3.842v-3.237h-3.074v24.729h3.266V259.18c-0.027-3.979,3.266-7.41,7.273-7.41
		c5.023,0,7.548,4.364,7.548,8.864v13.615h3.073v-13.615C125.111,254.213,121.354,248.916,114.436,248.916L114.436,248.916
		L114.436,248.916z"/>
	<polygon points="155.938,240.791 140.84,259.977 140.84,240.791 137.574,240.791 137.574,274.25 140.84,274.25 140.84,265.055 
		145.121,259.729 156.02,274.25 160.162,274.25 147.208,257.094 160.162,240.791 155.938,240.791 	"/>
	<polygon points="161.37,274.25 164.609,274.25 164.609,240.791 161.37,240.791 	"/>
	<path d="M191.426,255.75c-2.251-4.199-6.752-6.834-11.501-6.834c-7.081,0-13.065,5.9-13.065,12.982
		c0,7.135,6.041,12.928,13.121,12.928c3.377,0,6.697-1.346,9.14-3.678c1.483-1.4,2.36-3.158,3.157-4.996h-3.485l0,0
		c-1.757,3.432-4.858,5.818-8.866,5.818c-2.441,0-4.83-0.988-6.642-2.662c-1.866-1.701-2.69-3.787-3.048-6.259h22.81l0,0
		C193.045,260.471,192.688,258,191.426,255.75L191.426,255.75L191.426,255.75z M170.346,260.195
		c0.989-4.637,4.639-8.426,9.635-8.426c4.199,0,8.701,2.58,9.688,8.426H170.346L170.346,260.195L170.346,260.195z"/>
	<polygon points="195.461,274.25 198.729,274.25 198.729,249.52 195.461,249.52 	"/>
	<path d="M213.082,248.916c-3.184,0-5.407,1.646-7.493,3.842v-3.237h-3.129v24.729h3.294V259.18c-0.027-4.007,3.348-7.41,7.385-7.41
		c4.994,0,7.629,4.364,7.629,8.864v13.615h3.073v-13.615C223.841,254.213,220.025,248.916,213.082,248.916L213.082,248.916
		L213.082,248.916z"/>
</g>
</svg>
