<?xml version="1.0" encoding="utf-8"?>
<!-- Generator: Adobe Illustrator 16.0.0, SVG Export Plug-In . SVG Version: 6.00 Build 0)  -->
<!DOCTYPE svg PUBLIC "-//W3C//DTD SVG 1.1//EN" "http://www.w3.org/Graphics/SVG/1.1/DTD/svg11.dtd">
<svg version="1.1" id="Layer_1" xmlns="http://www.w3.org/2000/svg" xmlns:xlink="http://www.w3.org/1999/xlink" x="0px" y="0px"
	 width="462px" height="214px" viewBox="0 0 462 214" enable-background="new 0 0 462 214" xml:space="preserve">
<polygon points="81.583,89.733 81.583,102.276 52.289,102.276 52.289,162.885 31.661,162.885 31.661,102.276 1.269,102.276 
	1.269,89.733 "/>
<rect x="94.783" y="89.733" width="20.631" height="73.152"/>
<path d="M181.838,112.01c0.274-5.919-6.464-11.338-20.63-11.54c-10.038-0.101-17.464,2.408-18.153,8.429
	c-0.549,5.019,1.789,6.021,6.327,7.326c2.339,1.808,21.315,4.015,25.166,4.515c5.503,0.704,17.329,2.51,23.656,7.225
	c11.551,8.832,6.188,26.193-6.327,32.111c-8.526,4.014-20.216,5.018-31.356,5.114c-5.087,0.104-17.189-1.203-24.617-5.114
	c-8.938-4.716-13.339-11.939-14.027-18.865h20.079c0,1.908,0.824,4.92,4.263,7.526c4.539,3.412,11.965,4.515,18.841,4.313
	c6.877-0.1,13.341-1.604,15.953-3.411c4.403-3.011,5.365-8.729,0.413-12.343c-6.601-5.017-26.404-5.017-39.332-8.229
	c-10.864-2.711-19.804-8.428-18.153-20.27c1.65-11.64,13.202-20.269,37.682-20.269c5.363,0,24.067,0.301,33.832,9.332
	c5.226,4.916,6.602,11.74,5.776,14.148h-19.393V112.01L181.838,112.01z"/>
<path d="M266.689,112.01c0.272-5.919-6.465-11.338-20.631-11.54c-10.037-0.101-17.465,2.408-18.152,8.429
	c-0.549,5.019,1.789,6.021,6.326,7.326c2.34,1.808,21.314,4.015,25.168,4.515c5.502,0.704,17.326,2.51,23.654,7.225
	c11.553,8.832,6.188,26.193-6.328,32.111c-8.523,4.014-20.215,5.018-31.354,5.114c-5.087,0.104-17.19-1.203-24.618-5.114
	c-8.938-4.716-13.338-11.939-14.027-18.865h20.079c0,1.908,0.825,4.92,4.264,7.526c4.54,3.412,11.964,4.515,18.842,4.313
	c6.876-0.1,13.34-1.604,15.952-3.411c4.401-3.011,5.362-8.729,0.411-12.343c-6.601-5.017-26.402-5.017-39.333-8.229
	c-10.863-2.711-19.804-8.428-18.152-20.27c1.65-11.64,13.202-20.269,37.682-20.269c5.362,0,24.068,0.301,33.834,9.332
	c5.227,4.916,6.601,11.74,5.774,14.148h-19.394v0.002H266.689z"/>
<path d="M366.703,156.061c-7.651,6.324-18.814,9.129-30.482,9.129c-11.662,0-22.826-2.805-30.479-9.129
	c-8.526-7.123-13.545-18.16-13.545-29.199c0-11.037,5.019-22.074,13.545-29.199c7.652-6.321,18.816-9.133,30.479-9.133
	c11.668,0,22.831,2.812,30.482,9.133c8.527,7.125,13.545,18.162,13.545,29.199C380.248,137.9,375.23,148.938,366.703,156.061
	 M353.029,147.131c6.021-4.414,9.156-12.344,9.156-20.27c0-7.93-3.136-15.855-9.156-20.271c-4.769-3.512-10.788-4.917-16.809-4.917
	c-6.019,0-12.039,1.405-16.808,4.917c-6.021,4.415-9.155,12.342-9.155,20.271c0,7.926,3.137,15.854,9.155,20.27
	c4.769,3.512,10.789,4.916,16.808,4.916C342.241,152.047,348.264,150.643,353.029,147.131"/>
<polygon points="460.73,89.733 460.73,102.276 431.44,102.276 431.44,162.885 410.811,162.885 410.811,102.276 380.416,102.276 
	380.416,89.733 "/>
<path fill="#ED1C24" d="M235.727,0.542v68.827h68.826V0.542H235.727z M293.404,41.74h-16.479V58.22h-13.571V41.74h-16.479V28.169
	h16.479v-16.48h13.571v16.48h16.479V41.74z"/>
<path d="M157.447,0.298v68.827h68.827V0.298H157.447z M218.52,22.595h-19.389V61.37h-10.662V22.595H169.08V11.932h49.44V22.595z"/>
<path d="M4.827,210.793c1.95,0,3.173-1.158,3.173-2.945c0-2.158-1.552-3.158-3.865-4.977c-2.444-1.908-3.767-3.566-3.767-6.164
	c0-3.445,2.609-5.889,5.881-5.889c1.454,0,2.775,0.312,4.129,1.004v3.002c-1.221-0.811-2.378-1.219-3.534-1.219
	c-2.017,0-3.305,1.219-3.305,3.066c0,2.064,1.619,3.133,3.965,4.914c2.546,1.941,3.699,3.631,3.699,6.229
	c0,3.353-2.476,5.886-6.143,5.886c-1.322,0-2.677-0.375-4.097-1.125v-3.066C2.417,210.354,3.673,210.793,4.827,210.793"/>
<polygon points="21.678,191.104 24.817,191.104 27.097,206.379 29.838,191.104 32.449,191.104 35.225,206.379 37.47,191.104 
	40.61,191.104 36.677,213.422 34.068,213.422 31.16,197.582 28.22,213.422 25.643,213.422 "/>
<rect x="52.24" y="191.102" width="3.172" height="22.318"/>
<path d="M71.963,210.793c1.95,0,3.173-1.158,3.173-2.945c0-2.158-1.552-3.158-3.865-4.977c-2.444-1.908-3.766-3.566-3.766-6.164
	c0-3.445,2.608-5.889,5.88-5.889c1.454,0,2.776,0.312,4.129,1.004v3.002c-1.223-0.811-2.378-1.219-3.533-1.219
	c-2.018,0-3.305,1.219-3.305,3.066c0,2.064,1.619,3.133,3.964,4.914c2.546,1.941,3.7,3.631,3.7,6.229
	c0,3.353-2.477,5.886-6.144,5.886c-1.321,0-2.677-0.375-4.098-1.125v-3.066C69.553,210.354,70.808,210.793,71.963,210.793"/>
<path d="M93.704,210.793c1.95,0,3.173-1.158,3.173-2.945c0-2.158-1.552-3.158-3.865-4.977c-2.444-1.908-3.766-3.566-3.766-6.164
	c0-3.445,2.608-5.889,5.88-5.889c1.454,0,2.776,0.312,4.13,1.004v3.002c-1.222-0.811-2.379-1.219-3.534-1.219
	c-2.018,0-3.305,1.219-3.305,3.066c0,2.064,1.619,3.133,3.965,4.914c2.545,1.941,3.699,3.631,3.699,6.229
	c0,3.353-2.477,5.886-6.144,5.886c-1.321,0-2.677-0.375-4.097-1.125v-3.066C91.294,210.354,92.55,210.793,93.704,210.793"/>
<polygon points="121.459,191.104 124.599,191.104 126.877,206.379 129.619,191.104 132.23,191.104 135.006,206.379 137.251,191.104 
	140.392,191.104 136.458,213.422 133.85,213.422 130.94,197.582 128.001,213.422 125.423,213.422 "/>
<path d="M153.441,191.104h2.973l5.519,22.318h-3.205l-1.123-4.381h-5.387l-1.09,4.381h-3.204L153.441,191.104z M152.812,206.533
	h4.229l-2.114-9.672L152.812,206.533z"/>
<polygon points="173.66,193.887 169.301,193.887 169.301,191.104 181.227,191.104 181.227,193.887 176.866,193.887 176.866,213.422 
	173.66,213.422 "/>
<path d="M196.888,213.701c-4.823,0-7.204-3.723-7.204-11.234c0-7.732,2.611-11.648,7.567-11.648c1.091,0,2.049,0.189,2.941,0.598
	v2.852c-0.893-0.408-1.72-0.627-2.479-0.627c-3.468,0-4.855,2.881-4.855,8.795c0,5.635,1.42,8.393,4.524,8.393
	c0.895,0,1.785-0.285,2.811-0.846v2.941C199.134,213.451,198.077,213.701,196.888,213.701"/>
<polygon points="209.806,191.104 212.978,191.104 212.978,199.584 218.661,199.584 218.661,191.104 221.833,191.104 
	221.833,213.422 218.661,213.422 218.661,202.402 212.978,202.402 212.978,213.422 209.806,213.422 "/>
<polygon points="232.734,191.104 242.15,191.104 242.15,193.795 235.907,193.795 235.907,200.43 241.624,200.43 241.624,203.092 
	235.907,203.092 235.907,210.635 242.15,210.635 242.15,213.422 232.734,213.422 "/>
<path d="M255.564,210.793c1.949,0,3.172-1.158,3.172-2.945c0-2.158-1.553-3.158-3.864-4.977c-2.445-1.908-3.767-3.566-3.767-6.164
	c0-3.445,2.607-5.889,5.881-5.889c1.453,0,2.773,0.312,4.129,1.004v3.002c-1.223-0.811-2.379-1.219-3.533-1.219
	c-2.018,0-3.307,1.219-3.307,3.066c0,2.064,1.619,3.133,3.966,4.914c2.546,1.941,3.7,3.631,3.7,6.229
	c0,3.353-2.479,5.886-6.146,5.886c-1.32,0-2.676-0.375-4.097-1.125v-3.066C253.154,210.354,254.409,210.793,255.564,210.793"/>
<path d="M288.209,210.793c1.95,0,3.174-1.158,3.174-2.945c0-2.158-1.553-3.158-3.865-4.977c-2.445-1.908-3.769-3.566-3.769-6.164
	c0-3.445,2.612-5.889,5.88-5.889c1.454,0,2.776,0.312,4.133,1.004v3.002c-1.225-0.811-2.379-1.219-3.537-1.219
	c-2.016,0-3.303,1.219-3.303,3.066c0,2.064,1.617,3.133,3.965,4.914c2.545,1.941,3.699,3.631,3.699,6.229
	c0,3.353-2.477,5.886-6.146,5.886c-1.32,0-2.672-0.375-4.098-1.125v-3.066C285.797,210.354,287.055,210.793,288.209,210.793"/>
<rect x="304.432" y="191.102" width="3.174" height="22.318"/>
<polygon points="318.604,191.104 321.544,191.104 327.789,206.598 327.789,191.104 330.794,191.104 330.794,213.422 327.82,213.422 
	321.611,197.801 321.611,213.422 318.604,213.422 "/>
<path d="M348.209,213.701c-4.824,0-7.202-3.723-7.202-11.234c0-7.732,2.609-11.648,7.566-11.648c1.09,0,2.048,0.189,2.938,0.598
	v2.852c-0.892-0.408-1.717-0.627-2.478-0.627c-3.47,0-4.858,2.881-4.858,8.795c0,5.635,1.426,8.393,4.528,8.393
	c0.892,0,1.784-0.285,2.808-0.846v2.941C350.455,213.451,349.398,213.701,348.209,213.701"/>
<polygon points="361.027,191.104 370.443,191.104 370.443,193.795 364.2,193.795 364.2,200.43 369.916,200.43 369.916,203.092 
	364.2,203.092 364.2,210.635 370.443,210.635 370.443,213.422 361.027,213.422 "/>
<polygon points="396.846,193.795 393.938,193.795 393.938,191.104 399.784,191.104 399.784,213.422 396.846,213.422 "/>
<path d="M422.615,206.941c0,1.754-0.031,3.162-0.694,4.352c-0.858,1.533-2.442,2.408-4.461,2.408c-1.585,0-2.908-0.529-3.832-1.533
	c-1.253-1.344-1.321-2.973-1.321-5.227c0-3.16,0.562-4.885,2.874-5.633c-2.212-0.939-2.607-2.443-2.607-5.105
	c0-3.691,1.454-5.383,4.889-5.383c3.439,0,4.923,1.689,4.923,5.383c0,2.662-0.393,4.166-2.607,5.105
	C422.088,202.057,422.615,203.781,422.615,206.941 M417.46,211.074c1.687,0,2.147-1.221,2.147-4.037c0-2.977-0.43-4.355-2.147-4.355
	c-1.585,0-2.146,1.285-2.146,4.072C415.312,209.76,415.746,211.074,417.46,211.074 M419.479,196.674c0-2.35-0.494-3.412-2.019-3.412
	c-1.585,0-1.979,1.094-1.979,3.412c0,2.381,0.43,3.475,1.979,3.475C418.982,200.148,419.479,199.055,419.479,196.674"/>
<path d="M434.739,211.01c2.773,0,4.193-1.814,4.193-5.445c0-2.723-1.451-4.102-4.298-4.102c-0.923,0-1.784,0.064-2.673,0.314
	l1.552-10.674h8.228v2.752h-5.748l-0.924,5.449c0.561-0.098,1.09-0.158,1.519-0.158c3.173,0,5.354,2.537,5.354,6.543
	c0,5.068-2.546,8.012-6.775,8.012c-1.518,0-2.938-0.344-4.327-1.064l0.791-2.658C432.622,210.668,433.649,211.01,434.739,211.01"/>
<path d="M453.571,207.598c0,0.189-0.035,0.344-0.035,0.533c0,1.908,0.858,2.879,2.479,2.879c1.783,0,2.512-1.25,2.512-3.848
	c0-3.195-0.627-4.195-3.932-4.195h-0.465v-2.443c0.363,0.031,0.729,0.031,1.025,0.031c2.643,0,3.104-1,3.104-4.037
	c0-2.191-0.629-3.256-2.016-3.256c-1.686,0-2.244,1.188-2.313,3.82h-2.708c-0.031-0.314-0.031-0.629-0.031-0.939
	c0-3.568,1.614-5.324,4.889-5.324c3.537,0,5.223,1.975,5.223,6.074c0,2.85-0.895,4.416-2.811,4.82
	c2.348,0.408,3.139,2.004,3.139,5.105c0,4.695-1.686,6.883-5.846,6.883c-3.34,0-4.991-1.812-4.991-5.57v-0.533H453.571z"/>
</svg>
