<?xml version="1.0" encoding="utf-8"?>
<!-- Generator: Adobe Illustrator 16.0.0, SVG Export Plug-In . SVG Version: 6.00 Build 0)  -->
<!DOCTYPE svg PUBLIC "-//W3C//DTD SVG 1.1//EN" "http://www.w3.org/Graphics/SVG/1.1/DTD/svg11.dtd">
<svg version="1.1" id="Layer_1" xmlns="http://www.w3.org/2000/svg" xmlns:xlink="http://www.w3.org/1999/xlink" x="0px" y="0px"
	 width="322px" height="231px" viewBox="0 0 322 231" enable-background="new 0 0 322 231" xml:space="preserve">
<g>
	<path fill="#009692" d="M133.667,86.901h-27.776l-17.676,41.343c0,0-11.362,19.579,0.631,28.418
		c11.994,8.838,20.516,7.568,37.876-10.42c0,0,2.213,16.097,12.944,16.097c10.729,0,41.032,0,41.032,0l9.149-20.515h-25.564
		c0,0-9.47-1.581-3.156-15.148c6.314-13.577,18.938-39.457,18.938-39.457h-28.721l-17.993,44.5c0,0-5.051,13.578-14.203,8.524
		s4.733-31.563,4.733-31.563L133.667,86.901"/>
	<path fill="#009692" d="M206.895,140.243c-2.521,3.784-13.885,0.312-10.412-7.579c3.473-7.893,16.729-3.463,16.729-3.463
		S209.416,136.459,206.895,140.243L206.895,140.243z M230.889,87.219h-44.514l-8.516,19.567l39.771,0.318
		c0,0,5.677,3.79-0.635,5.048l-27.776-0.312c0,0-22.099,5.684-23.357,24.618h27.777c0,0,1.893,1.894-4.103,14.515l-5.054,11.678
		h43.244c0,0-4.736-2.516-5.055-5.988c-0.312-3.473,20.52-47.666,20.52-47.666S246.672,90.38,230.889,87.219"/>
</g>
<g>
	<path fill="#009692" d="M176.591,0.098c0,0-10.415,49.877,25.257,82.067h17.041c0,0-39.459-23.981-41.352-72.907L176.591,0.098"/>
	<path fill="#009692" d="M208.158,33.874l-14.516-0.317c0,0,1.893,32.825,50.185,43.243c0,0,12.628-0.312,18.938,2.21
		c6.312,2.522,4.73,11.047-1.892,17.676c-6.634,6.629-9.161,10.413-1.271,30.612c7.893,20.203-3.149,40.095-24.934,53.351
		c0,0,26.203,3.151,37.244-41.984c0,0-0.629-18.309-4.419-22.092c-3.784-3.785-3.474-11.364,1.581-15.784
		c5.053-4.419,9.783-11.988,2.838-22.095c-6.939-10.096-18.616-3.468-32.189-8.838c-13.576-5.365-28.096-15.783-30.934-31.244
		L208.158,33.874"/>
	<path fill="#009692" d="M252.666,1.044c0,0-11.994,11.052-11.359,29.356c0.629,18.306,8.832,28.724,15.148,28.412
		c6.312-0.322,10.413-11.999,10.413-11.999h5.993c0,0-8.521,8.203,2.216,22.729c10.731,14.516,26.514,7.893,29.353,8.839
		c2.84,0.946,16.418,8.838,8.525,30.299c-7.891,21.458-26.52,51.767-59.344,68.808c0,0,33.143-4.42,64.392-63.754
		c0,0,13.888-30.311-10.101-40.406c0,0-14.838,1.264-19.568-1.58c-4.736-2.839-14.516-8.521-13.891-17.042
		c0.634-8.521,4.418-9.149,4.418-9.149s1.894-4.425-1.58-4.741c-3.467-0.312-11.359,0-14.203,1.58
		c-2.839,1.58-0.312,12.311-7.258,11.048c-6.945-1.264-9.473-9.785-9.473-23.042c0-13.257,5.371-25.885,5.371-25.885L252.666,1.044"
		/>
</g>
<g>
	<path fill="#1B5080" d="M10.466,174.359h5.301l-2.589,11.59c-0.314,1.388-0.471,2.258-0.471,2.603c0,0.56,0.186,1.044,0.56,1.451
		c0.371,0.408,0.852,0.606,1.433,0.606c0.416,0,0.825-0.092,1.233-0.274c0.406-0.183,0.825-0.461,1.253-0.838
		c0.427-0.376,0.812-0.806,1.153-1.29c0.342-0.482,0.656-1.118,0.954-1.9c0.207-0.586,0.448-1.453,0.726-2.615l2.097-9.332h5.25
		l-4.433,19.537H18.04l0.524-2.518c-1.983,2-4.142,3-6.473,3c-1.479,0-2.637-0.463-3.483-1.387c-0.847-0.92-1.269-2.156-1.269-3.709
		c0-0.678,0.226-2.021,0.672-4.032L10.466,174.359"/>
	<path fill="#1B5080" d="M33.346,174.359h5.002l-0.505,2.57c1.26-1.087,2.44-1.855,3.534-2.312c1.091-0.469,2.247-0.699,3.456-0.699
		c1.621,0,2.898,0.463,3.831,1.389c0.933,0.928,1.403,2.161,1.403,3.687c-0.008,0.688-0.221,1.979-0.637,3.889l-2.379,11.015h-5.25
		l2.359-11.052c0.344-1.657,0.535-2.641,0.57-2.969c0-0.678-0.201-1.215-0.607-1.603c-0.408-0.387-0.974-0.58-1.699-0.58
		c-0.784,0-1.66,0.322-2.625,0.968c-0.961,0.649-1.718,1.51-2.267,2.569c-0.397,0.764-0.847,2.312-1.344,4.648l-1.667,8.018h-5.252
		L33.346,174.359"/>
	<path fill="#1B5080" d="M57.811,166.968h5.247l-0.991,4.746h-5.248L57.811,166.968L57.811,166.968z M56.266,174.359h5.25
		l-4.081,19.535h-5.247L56.266,174.359"/>
	<path fill="#1B5080" d="M72.386,193.896h-4.562l-3.918-19.537h5.188l1.354,8.541c0.395,2.297,0.64,3.824,0.726,4.576
		c0.11-0.188,0.543-0.975,1.293-2.35c0.749-1.382,1.209-2.209,1.371-2.493l4.849-8.274h5.68L72.386,193.896"/>
	<path fill="#1B5080" d="M98.076,182.529c0.014-0.225,0.019-0.402,0.019-0.525c0-1.441-0.321-2.518-0.971-3.236
		c-0.647-0.721-1.516-1.074-2.604-1.074c-1.087,0-2.062,0.404-2.925,1.22c-0.859,0.821-1.443,2.026-1.747,3.618h8.228V182.529z
		 M102.51,185.768H89.316c-0.014,0.205-0.019,0.366-0.019,0.479c0,1.308,0.368,2.358,1.106,3.165
		c0.74,0.796,1.644,1.197,2.705,1.197c1.747,0,3.109-0.912,4.089-2.74l4.697,0.785c-0.916,1.908-2.142,3.339-3.677,4.296
		c-1.532,0.956-3.253,1.43-5.158,1.43c-2.617,0-4.744-0.825-6.378-2.494c-1.641-1.655-2.457-3.86-2.457-6.592
		c0-2.676,0.739-5.053,2.218-7.144c2.016-2.823,4.897-4.231,8.638-4.231c2.383,0,4.28,0.735,5.684,2.216
		c1.406,1.473,2.11,3.537,2.11,6.198C102.875,183.605,102.751,184.745,102.51,185.768"/>
	<path fill="#1B5080" d="M108.229,174.359h4.949l-0.779,3.795c1.822-2.822,3.798-4.236,5.927-4.236c0.751,0,1.562,0.193,2.424,0.57
		l-2.007,4.338c-0.479-0.172-0.989-0.258-1.527-0.258c-0.909,0-1.831,0.344-2.769,1.027c-0.938,0.688-1.672,1.596-2.196,2.74
		c-0.528,1.141-1.052,2.956-1.563,5.441l-1.283,6.117h-5.25L108.229,174.359"/>
	<path fill="#1B5080" d="M118.393,188.477l5.093-0.807c0.451,1.075,1.014,1.833,1.688,2.279c0.672,0.441,1.592,0.66,2.753,0.66
		c1.198,0,2.16-0.268,2.881-0.811c0.502-0.365,0.752-0.818,0.752-1.346c0-0.354-0.126-0.676-0.384-0.956
		c-0.269-0.269-0.997-0.603-2.177-0.996c-3.171-1.053-5.137-1.885-5.896-2.499c-1.182-0.956-1.772-2.214-1.772-3.751
		c0-1.549,0.573-2.883,1.723-3.994c1.601-1.561,3.98-2.34,7.136-2.34c2.508,0,4.402,0.463,5.688,1.371
		c1.283,0.914,2.097,2.155,2.438,3.715l-4.846,0.839c-0.256-0.709-0.675-1.236-1.25-1.591c-0.785-0.474-1.731-0.711-2.833-0.711
		c-1.107,0-1.898,0.188-2.387,0.56c-0.483,0.366-0.726,0.797-0.726,1.279c0,0.495,0.244,0.903,0.733,1.217
		c0.307,0.197,1.288,0.547,2.954,1.03c2.563,0.753,4.282,1.483,5.153,2.211c1.22,1.015,1.83,2.245,1.83,3.681
		c0,1.851-0.776,3.459-2.331,4.816c-1.553,1.366-3.743,2.044-6.565,2.044c-2.818,0-4.992-0.517-6.525-1.549
		C119.986,191.799,118.945,190.348,118.393,188.477"/>
	<path fill="#1B5080" d="M145.613,166.968h5.246l-0.991,4.746h-5.248L145.613,166.968L145.613,166.968z M144.067,174.359h5.249
		l-4.08,19.535h-5.252L144.067,174.359"/>
	<path fill="#1B5080" d="M156.257,185.973c0,1.396,0.354,2.481,1.062,3.269c0.71,0.782,1.584,1.171,2.618,1.171
		c0.966,0,1.86-0.321,2.693-0.979c0.833-0.656,1.497-1.654,1.998-3.004c0.499-1.352,0.749-2.641,0.749-3.877
		c0-1.408-0.384-2.543-1.15-3.419c-0.764-0.86-1.645-1.302-2.645-1.302c-1.552,0-2.828,0.859-3.828,2.575
		C156.758,182.121,156.257,183.973,156.257,185.973L156.257,185.973z M168.402,193.896h-4.998l0.438-2.104
		c-0.953,0.926-1.892,1.586-2.813,1.982c-0.922,0.41-1.968,0.604-3.126,0.604c-2.019,0-3.65-0.688-4.904-2.07
		c-1.254-1.379-1.884-3.412-1.884-6.117c0-3.123,0.893-5.95,2.676-8.479c1.782-2.525,4.139-3.795,7.071-3.795
		c2.65,0,4.634,1.05,5.958,3.145l2.211-10.095h5.248L168.402,193.896"/>
	<path fill="#1B5080" d="M185.741,184.788c-0.317,0.085-0.731,0.161-1.253,0.237c-2.607,0.322-4.307,0.783-5.103,1.402
		c-0.569,0.444-0.85,1.036-0.85,1.79c0,0.611,0.215,1.134,0.649,1.558c0.438,0.432,1.006,0.636,1.722,0.636
		c0.778,0,1.521-0.192,2.215-0.581c0.692-0.382,1.209-0.881,1.553-1.493c0.345-0.608,0.651-1.56,0.915-2.851L185.741,184.788
		L185.741,184.788z M180.838,179.891l-5.14-0.436c0.581-1.735,1.603-3.09,3.054-4.074c1.457-0.968,3.382-1.463,5.773-1.463
		c2.5,0,4.344,0.507,5.537,1.516c1.193,1.012,1.785,2.248,1.785,3.7c0,0.591-0.054,1.214-0.149,1.882
		c-0.108,0.654-0.468,2.396-1.087,5.213c-0.512,2.33-0.77,3.959-0.77,4.889c0,0.833,0.145,1.757,0.426,2.779h-5.074
		c-0.237-0.715-0.389-1.453-0.441-2.205c-0.764,0.854-1.641,1.517-2.635,1.99c-0.994,0.461-1.994,0.697-2.999,0.697
		c-1.603,0-2.925-0.525-3.962-1.592c-1.049-1.055-1.565-2.419-1.565-4.085c0-1.866,0.571-3.354,1.722-4.474
		c1.145-1.112,3.192-1.785,6.14-2.021c2.483-0.205,4.146-0.464,4.983-0.754c0.215-0.735,0.328-1.328,0.328-1.772
		c0-0.57-0.227-1.043-0.668-1.42c-0.445-0.388-1.106-0.57-1.982-0.57c-0.926,0-1.65,0.184-2.188,0.57
		C181.393,178.643,181.032,179.188,180.838,179.891"/>
	<path fill="#1B5080" d="M200.127,185.973c0,1.396,0.354,2.481,1.064,3.269c0.709,0.782,1.586,1.171,2.617,1.171
		c0.963,0,1.858-0.322,2.693-0.979c0.833-0.656,1.494-1.656,2-3.004c0.494-1.352,0.745-2.642,0.745-3.877
		c0-1.41-0.38-2.543-1.149-3.419c-0.757-0.86-1.644-1.302-2.644-1.302c-1.556,0-2.83,0.859-3.828,2.574
		C200.633,182.121,200.127,183.973,200.127,185.973L200.127,185.973z M212.275,193.896h-5l0.44-2.104
		c-0.956,0.926-1.893,1.585-2.815,1.982c-0.924,0.408-1.967,0.604-3.129,0.604c-2.017,0-3.646-0.689-4.902-2.07
		c-1.253-1.381-1.883-3.412-1.883-6.117c0-3.123,0.894-5.95,2.68-8.479c1.777-2.525,4.139-3.795,7.073-3.795
		c2.646,0,4.629,1.05,5.956,3.145l2.205-10.095h5.252L212.275,193.896"/>
	<polyline fill="#1B5080" points="-0.001,230.418 5.579,203.718 10.785,203.718 5.205,230.418 -0.001,230.418 	"/>
	<path fill="#1B5080" d="M22.647,221.389c-0.312,0.086-0.723,0.16-1.239,0.235c-2.586,0.321-4.271,0.785-5.061,1.392
		c-0.562,0.441-0.845,1.033-0.845,1.779c0,0.604,0.218,1.118,0.647,1.543c0.431,0.426,0.997,0.63,1.704,0.63
		c0.777,0,1.509-0.188,2.199-0.569c0.686-0.388,1.201-0.881,1.542-1.484c0.342-0.602,0.644-1.547,0.906-2.827L22.647,221.389
		L22.647,221.389z M17.785,216.533l-5.097-0.436c0.578-1.722,1.589-3.065,3.032-4.033c1.441-0.967,3.352-1.455,5.728-1.455
		c2.476,0,4.304,0.498,5.486,1.505c1.183,1.005,1.774,2.225,1.774,3.671c0,0.581-0.051,1.204-0.153,1.861
		c-0.104,0.655-0.463,2.375-1.078,5.17c-0.505,2.312-0.758,3.925-0.758,4.85c0,0.828,0.14,1.742,0.422,2.752h-5.034
		c-0.237-0.709-0.382-1.429-0.438-2.182c-0.756,0.85-1.629,1.505-2.612,1.968c-0.986,0.462-1.979,0.698-2.976,0.698
		c-1.586,0-2.897-0.527-3.931-1.582c-1.034-1.041-1.551-2.396-1.551-4.053c0-1.849,0.567-3.322,1.707-4.43
		c1.135-1.107,3.164-1.773,6.085-2.011c2.466-0.204,4.113-0.451,4.943-0.742c0.216-0.729,0.326-1.321,0.326-1.763
		c0-0.559-0.224-1.033-0.662-1.408c-0.44-0.376-1.096-0.568-1.964-0.568c-0.917,0-1.64,0.192-2.17,0.568
		C18.336,215.296,17.977,215.834,17.785,216.533"/>
	<path fill="#1B5080" d="M32.453,214.979l0.825-3.935h2.546l0.631-3.054l5.949-3.592l-1.363,6.646h3.21l-0.826,3.935h-3.188
		l-1.71,8.098c-0.312,1.462-0.464,2.301-0.464,2.506c0,0.396,0.128,0.709,0.384,0.936c0.258,0.226,0.72,0.338,1.392,0.338
		c0.234,0,0.812-0.043,1.742-0.123l-0.825,3.896c-0.9,0.184-1.824,0.273-2.771,0.273c-1.85,0-3.191-0.354-4.032-1.073
		c-0.839-0.711-1.256-1.711-1.256-2.979c0-0.59,0.221-1.966,0.665-4.111l1.683-7.758h-2.592"/>
	<path fill="#1B5080" d="M49.14,203.718h5.204l-0.983,4.702h-5.207L49.14,203.718L49.14,203.718z M47.607,211.044h5.207
		l-4.048,19.374h-5.208L47.607,211.044"/>
	<path fill="#1B5080" d="M58.007,211.044h4.962l-0.499,2.554c1.25-1.08,2.419-1.844,3.504-2.302
		c1.084-0.456,2.227-0.687,3.429-0.687c1.608,0,2.872,0.455,3.8,1.381c0.924,0.914,1.39,2.135,1.39,3.656
		c-0.008,0.677-0.218,1.955-0.631,3.848l-2.358,10.924h-5.206l2.338-10.961c0.345-1.641,0.532-2.617,0.567-2.939
		c0-0.666-0.198-1.205-0.604-1.592c-0.404-0.387-0.965-0.578-1.683-0.578c-0.779,0-1.647,0.319-2.604,0.965
		c-0.952,0.646-1.704,1.494-2.247,2.549c-0.396,0.753-0.842,2.289-1.334,4.613l-1.655,7.943h-5.207L58.007,211.044"/>
	<path fill="#1B5080" d="M92.326,218.656c0-1.242-0.362-2.236-1.085-2.989c-0.724-0.752-1.655-1.128-2.798-1.128
		c-1.13,0-2.132,0.354-3.008,1.055c-0.877,0.702-1.557,1.719-2.043,3.057c-0.484,1.34-0.729,2.566-0.729,3.684
		c0,1.393,0.376,2.495,1.132,3.312c0.755,0.816,1.701,1.227,2.844,1.227c1.433,0,2.637-0.612,3.609-1.85
		C91.634,223.279,92.326,221.162,92.326,218.656L92.326,218.656z M77.471,222.396c0-3.59,1.008-6.449,3.026-8.584
		c2.019-2.135,4.669-3.203,7.953-3.203c2.848,0,5.072,0.789,6.67,2.363c1.599,1.577,2.399,3.693,2.399,6.359
		c0,3.141-0.999,5.85-2.997,8.141c-2,2.291-4.679,3.43-8.036,3.43c-1.817,0-3.431-0.365-4.836-1.098
		c-1.406-0.729-2.454-1.763-3.145-3.097C77.817,225.366,77.471,223.936,77.471,222.396"/>
	<path fill="#1B5080" d="M111.71,221.389c-0.312,0.086-0.724,0.16-1.239,0.235c-2.582,0.321-4.271,0.785-5.061,1.392
		c-0.562,0.441-0.843,1.033-0.843,1.779c0,0.604,0.215,1.118,0.646,1.543c0.431,0.426,0.998,0.63,1.705,0.63
		c0.775,0,1.507-0.188,2.199-0.569c0.685-0.388,1.2-0.881,1.542-1.484c0.341-0.602,0.643-1.547,0.905-2.827L111.71,221.389
		L111.71,221.389z M106.848,216.533l-5.097-0.436c0.581-1.722,1.592-3.065,3.031-4.033c1.444-0.967,3.353-1.455,5.731-1.455
		c2.473,0,4.301,0.498,5.484,1.505c1.182,1.005,1.773,2.225,1.773,3.671c0,0.581-0.052,1.204-0.153,1.861
		c-0.104,0.655-0.463,2.375-1.075,5.17c-0.508,2.312-0.761,3.925-0.761,4.85c0,0.828,0.14,1.742,0.422,2.752h-5.034
		c-0.236-0.709-0.381-1.429-0.439-2.182c-0.755,0.85-1.628,1.505-2.611,1.968c-0.986,0.462-1.979,0.698-2.977,0.698
		c-1.586,0-2.894-0.527-3.929-1.582c-1.035-1.041-1.552-2.396-1.552-4.053c0-1.849,0.567-3.322,1.708-4.43
		c1.134-1.107,3.164-1.773,6.085-2.011c2.465-0.204,4.112-0.451,4.943-0.742c0.215-0.729,0.325-1.321,0.325-1.763
		c0-0.559-0.221-1.033-0.661-1.408c-0.44-0.376-1.097-0.568-1.966-0.568c-0.913,0-1.639,0.192-2.169,0.568
		C107.398,215.296,107.041,215.834,106.848,216.533"/>
	<path fill="#1B5080" d="M124.102,211.044h4.911l-0.455,2.347c1.928-1.852,3.952-2.781,6.074-2.781c1.463,0,2.592,0.307,3.388,0.908
		c0.793,0.612,1.299,1.453,1.519,2.516c0.669-0.967,1.634-1.784,2.89-2.438c1.258-0.658,2.561-0.984,3.919-0.984
		c1.545,0,2.755,0.419,3.623,1.252c0.863,0.839,1.299,1.945,1.299,3.318c-0.004,0.67-0.188,1.82-0.552,3.449l-2.534,11.788h-5.207
		l2.514-11.788c0.31-1.479,0.468-2.316,0.48-2.517c0-0.544-0.163-0.974-0.488-1.296c-0.328-0.312-0.816-0.471-1.471-0.471
		c-1.319,0-2.497,0.686-3.532,2.062c-0.752,0.989-1.396,2.735-1.922,5.241l-1.833,8.768h-5.206l2.443-11.695
		c0.279-1.346,0.419-2.229,0.419-2.625c0-0.511-0.174-0.93-0.523-1.259c-0.347-0.327-0.829-0.491-1.438-0.491
		c-0.576,0-1.169,0.17-1.782,0.514c-0.612,0.339-1.148,0.807-1.61,1.398c-0.457,0.602-0.852,1.364-1.182,2.301
		c-0.146,0.44-0.383,1.43-0.711,2.974l-1.864,8.885h-5.21L124.102,211.044"/>
	<path fill="#1B5080" d="M167.777,219.15c0.011-0.226,0.02-0.396,0.02-0.521c0-1.425-0.322-2.5-0.965-3.21
		c-0.645-0.715-1.503-1.073-2.582-1.073c-1.08,0-2.047,0.407-2.9,1.213c-0.853,0.817-1.432,2.012-1.736,3.592H167.777
		L167.777,219.15z M172.172,222.354h-13.084c-0.015,0.217-0.02,0.371-0.02,0.485c0,1.289,0.368,2.338,1.1,3.134
		c0.734,0.791,1.625,1.188,2.684,1.188c1.73,0,3.082-0.901,4.053-2.715l4.66,0.779c-0.907,1.893-2.123,3.312-3.647,4.258
		c-1.521,0.947-3.226,1.42-5.112,1.42c-2.598,0-4.706-0.828-6.329-2.473c-1.626-1.646-2.438-3.828-2.438-6.541
		c0-2.652,0.736-5.019,2.201-7.082c2-2.795,4.857-4.197,8.565-4.197c2.365,0,4.244,0.729,5.637,2.197
		c1.397,1.463,2.097,3.512,2.097,6.146C172.537,220.217,172.414,221.355,172.172,222.354"/>
	<path fill="#1B5080" d="M177.844,211.044h4.908l-0.773,3.769c1.807-2.799,3.769-4.203,5.875-4.203c0.748,0,1.555,0.188,2.408,0.564
		l-1.994,4.301c-0.473-0.168-0.977-0.252-1.51-0.252c-0.898,0-1.818,0.338-2.748,1.014c-0.93,0.684-1.654,1.593-2.178,2.723
		c-0.525,1.135-1.043,2.936-1.553,5.396l-1.271,6.062h-5.202L177.844,211.044"/>
	<path fill="#1B5080" d="M194.182,203.718h5.203l-0.979,4.702h-5.203L194.182,203.718L194.182,203.718z M192.654,211.044h5.203
		l-4.049,19.374H188.6L192.654,211.044"/>
	<path fill="#1B5080" d="M212.023,223.184l5.096,0.816c-0.833,2.258-2.074,3.968-3.709,5.141c-1.641,1.17-3.532,1.762-5.693,1.762
		c-2.462,0-4.418-0.735-5.859-2.209c-1.438-1.467-2.166-3.5-2.166-6.074c0-2.102,0.437-4.098,1.307-5.969
		c0.878-1.875,2.193-3.348,3.945-4.424c1.764-1.074,3.688-1.617,5.785-1.617c2.285,0,4.103,0.603,5.461,1.801
		c1.354,1.203,2.119,2.785,2.291,4.753l-4.902,0.536c-0.118-1.096-0.456-1.907-1-2.43c-0.543-0.516-1.252-0.773-2.129-0.773
		c-1.01,0-1.956,0.376-2.838,1.129c-0.877,0.753-1.549,1.889-2.021,3.389c-0.468,1.504-0.699,2.913-0.699,4.234
		c0,1.141,0.274,2.021,0.828,2.645c0.561,0.625,1.254,0.938,2.086,0.938c0.827,0,1.635-0.309,2.408-0.915
		C210.984,225.311,211.588,224.396,212.023,223.184"/>
	<path fill="#1B5080" d="M231.941,221.389c-0.312,0.086-0.727,0.16-1.236,0.235c-2.592,0.321-4.273,0.785-5.064,1.392
		c-0.559,0.441-0.844,1.033-0.844,1.779c0,0.604,0.215,1.118,0.65,1.543c0.431,0.426,0.994,0.63,1.697,0.63
		c0.78,0,1.513-0.188,2.199-0.569c0.688-0.388,1.198-0.881,1.543-1.484c0.346-0.602,0.646-1.547,0.903-2.827L231.941,221.389
		L231.941,221.389z M227.082,216.533l-5.098-0.436c0.576-1.722,1.586-3.065,3.026-4.033c1.445-0.967,3.354-1.455,5.73-1.455
		c2.479,0,4.307,0.498,5.489,1.505c1.183,1.005,1.773,2.225,1.773,3.671c0,0.581-0.054,1.204-0.162,1.859
		c-0.096,0.657-0.457,2.377-1.074,5.172c-0.506,2.312-0.752,3.925-0.752,4.85c0,0.828,0.133,1.741,0.418,2.752h-5.031
		c-0.237-0.709-0.387-1.43-0.44-2.182c-0.759,0.85-1.629,1.505-2.612,1.967c-0.99,0.462-1.979,0.699-2.979,0.699
		c-1.585,0-2.893-0.527-3.924-1.582c-1.037-1.041-1.553-2.396-1.553-4.053c0-1.85,0.563-3.322,1.703-4.43
		c1.139-1.107,3.166-1.773,6.086-2.011c2.467-0.204,4.117-0.452,4.944-0.742c0.216-0.729,0.323-1.321,0.323-1.763
		c0-0.559-0.221-1.033-0.656-1.409c-0.439-0.375-1.097-0.567-1.968-0.567c-0.914,0-1.64,0.192-2.172,0.567
		C227.629,215.296,227.27,215.834,227.082,216.533"/>
	<path fill="#1B5080" d="M244.525,211.044h4.963l-0.5,2.554c1.253-1.08,2.414-1.844,3.5-2.302c1.085-0.456,2.229-0.687,3.43-0.687
		c1.611,0,2.875,0.455,3.8,1.381c0.931,0.914,1.394,2.134,1.394,3.654c-0.012,0.679-0.215,1.957-0.635,3.85l-2.354,10.924h-5.209
		l2.337-10.961c0.347-1.641,0.538-2.617,0.569-2.939c0-0.666-0.203-1.205-0.602-1.592c-0.408-0.387-0.969-0.58-1.688-0.58
		c-0.78,0-1.646,0.321-2.602,0.967c-0.951,0.646-1.705,1.494-2.248,2.549c-0.396,0.753-0.839,2.289-1.332,4.613l-1.656,7.943h-5.209
		L244.525,211.044"/>
	<path fill="#1B5080" d="M275.454,221.389c-0.312,0.086-0.726,0.16-1.237,0.235c-2.59,0.321-4.277,0.785-5.062,1.392
		c-0.565,0.441-0.844,1.033-0.844,1.779c0,0.604,0.215,1.118,0.645,1.543c0.436,0.426,1,0.63,1.704,0.63
		c0.778,0,1.51-0.188,2.198-0.569c0.688-0.388,1.199-0.881,1.543-1.484c0.345-0.602,0.646-1.547,0.904-2.827L275.454,221.389
		L275.454,221.389z M270.594,216.533l-5.102-0.436c0.58-1.722,1.59-3.065,3.031-4.033c1.445-0.967,3.354-1.455,5.729-1.455
		c2.479,0,4.308,0.498,5.483,1.505c1.188,1.005,1.779,2.225,1.779,3.671c0,0.581-0.054,1.204-0.16,1.859
		c-0.098,0.657-0.457,2.377-1.076,5.172c-0.506,2.312-0.758,3.925-0.758,4.85c0,0.828,0.141,1.741,0.424,2.752h-5.036
		c-0.236-0.709-0.382-1.43-0.437-2.182c-0.757,0.85-1.629,1.505-2.611,1.967c-0.989,0.462-1.979,0.699-2.979,0.699
		c-1.586,0-2.893-0.527-3.926-1.582c-1.037-1.041-1.553-2.396-1.553-4.053c0-1.85,0.563-3.322,1.705-4.43
		c1.134-1.107,3.164-1.773,6.084-2.011c2.463-0.204,4.111-0.452,4.947-0.742c0.215-0.729,0.32-1.321,0.32-1.763
		c0-0.559-0.22-1.033-0.661-1.409c-0.436-0.375-1.091-0.567-1.962-0.567c-0.914,0-1.64,0.192-2.172,0.567
		C271.143,215.296,270.782,215.834,270.594,216.533"/>
</g>
</svg>
