<?xml version="1.0" encoding="utf-8"?>
<!-- Generator: Adobe Illustrator 16.0.0, SVG Export Plug-In . SVG Version: 6.00 Build 0)  -->
<!DOCTYPE svg PUBLIC "-//W3C//DTD SVG 1.1//EN" "http://www.w3.org/Graphics/SVG/1.1/DTD/svg11.dtd">
<svg version="1.1" id="Isolation_Mode" xmlns="http://www.w3.org/2000/svg" xmlns:xlink="http://www.w3.org/1999/xlink" x="0px"
	 y="0px" width="187px" height="94px" viewBox="0 0 187 94" enable-background="new 0 0 187 94" xml:space="preserve">
<path fill="#ED1C24" d="M87.333,47.159v-2.3l0,0c-3.611-2.301-6.769-5.19-9.283-8.936c-4.146-7.946-5.243-15.865,0.321-23.811
	c10.38-11.718,17.63-7.17,24.426-0.321c4.469,6.394,4.682,12.789,2.996,19.183c-1.873,6.367-5.083,11.022-9.578,13.885
	c0,0.883,0,1.391,0,2.273c5.939,0,13.244,0,19.184,0l0,0l3.129-7.169l0,0c-0.293-1.632-1.016-1.418-2.461-1.365l0,0l-2.354,3.264
	l0,0c-1.872,0-3.745,0-5.617,0c1.658-2.408,3.316-4.842,4.948-7.277c2.274-5.885,3.157-12.039,0.99-18.834
	C109.459,0.93,90.785-3.029,78.879,2.83c-7.304,3.558-12.601,10.647-12.413,20.199c0.214,7.169,3.692,13.698,8.722,18.834
	c-1.124,0-3.211,0-4.308,0l0,0l-3.96-3.21l0,0c-1.123-0.375-1.952,0.134-2.166,1.391l0,0l4.093,7.116l0,0
	C75.026,47.159,81.18,47.159,87.333,47.159L87.333,47.159L87.333,47.159L87.333,47.159z"/>
<g>
	<polygon fill="#ED1C24" points="61.248,82.206 49.771,55.773 39.23,92.988 44.287,92.988 50.842,69.739 61.248,93.766 
		71.683,69.739 78.21,92.988 83.268,92.988 72.752,55.773 61.248,82.206 	"/>
	<path fill="#ED1C24" d="M19.086,55.773c-0.027,0-0.055,0-0.081,0c-5.484,0.026-10.06,1.953-13.751,5.806
		c-3.531,3.72-5.297,8.106-5.297,13.188c0,5.004,1.712,9.338,5.137,13.029c3.691,3.96,8.32,5.939,13.911,5.967
		c0.026,0,0.054,0,0.081,0c5.35,0,9.898-1.927,13.617-5.807c3.584-3.718,5.377-8.133,5.377-13.189c0-5.108-1.793-9.522-5.377-13.242
		C29.011,57.7,24.49,55.773,19.086,55.773L19.086,55.773L19.086,55.773L19.086,55.773z M28.877,85.068
		c-2.568,2.729-5.832,4.094-9.846,4.094c0,0,0,0-0.026,0c-4.013,0-7.304-1.393-9.872-4.146c-2.541-2.781-3.825-6.18-3.825-10.192
		s1.284-7.438,3.825-10.246c2.568-2.81,5.859-4.2,9.872-4.2c0.026,0,0.026,0,0.026,0c4.014,0,7.277,1.391,9.846,4.173
		c2.542,2.81,3.826,6.233,3.826,10.273C32.703,78.916,31.419,82.312,28.877,85.068L28.877,85.068L28.877,85.068L28.877,85.068z"/>
	<path fill="#ED1C24" d="M169.627,55.827l-0.027-0.054l-17.39,37.215h5.458l4.574-9.793h7.385h7.357l4.574,9.793h5.483
		L169.627,55.827L169.627,55.827L169.627,55.827z M169.627,78.595h-5.618l5.591-11.155l0.027,0.054l5.592,11.103L169.627,78.595
		L169.627,78.595L169.627,78.595z"/>
	<polygon fill="#ED1C24" points="87.146,92.988 108.87,92.988 108.87,88.387 92.203,88.387 92.203,75.6 108.87,75.6 108.87,70.997 
		92.203,70.997 92.203,61.07 108.87,61.07 108.87,56.55 87.146,56.55 87.146,92.988 	"/>
	<path fill="#ED1C24" d="M131.932,78.327h13.028l0,0c-0.294,3.13-1.604,5.726-3.933,7.784c-2.301,2.033-5.137,3.051-8.508,3.051
		c-4.041,0-7.33-1.393-9.873-4.146c-2.566-2.781-3.853-6.18-3.853-10.192s1.285-7.438,3.853-10.246c2.543-2.81,5.832-4.2,9.873-4.2
		c2.112,0,3.933,0.348,5.483,1.07c1.552,0.695,3.022,1.766,4.414,3.184l0,0l3.826-3.051l0,0c-1.953-1.898-4.013-3.344-6.207-4.334
		c-2.222-0.989-4.683-1.471-7.464-1.471c-5.512,0-10.141,1.926-13.831,5.805c-3.532,3.72-5.298,8.105-5.298,13.189
		c0,4.494,1.392,8.535,4.199,12.146c3.531,4.574,8.535,6.851,14.93,6.851c6.287,0,11.021-2.328,14.205-7.011
		c2.488-3.61,3.72-7.946,3.72-13.028l0,0H133.75L131.932,78.327L131.932,78.327L131.932,78.327z"/>
</g>
</svg>
