<?xml version="1.0" encoding="utf-8"?>
<!-- Generator: Adobe Illustrator 16.0.0, SVG Export Plug-In . SVG Version: 6.00 Build 0)  -->
<!DOCTYPE svg PUBLIC "-//W3C//DTD SVG 1.1//EN" "http://www.w3.org/Graphics/SVG/1.1/DTD/svg11.dtd">
<svg version="1.1" id="Layer_1" xmlns="http://www.w3.org/2000/svg" xmlns:xlink="http://www.w3.org/1999/xlink" x="0px" y="0px"
	 width="489.25px" height="190.271px" viewBox="0 0 489.25 190.271" enable-background="new 0 0 489.25 190.271"
	 xml:space="preserve">
<path fill="#21538F" d="M14.221,152.02c-3.502,0-6.342,2.84-6.342,6.342s2.84,6.34,6.342,6.34c3.502,0,6.341-2.838,6.341-6.34
	S17.724,152.02,14.221,152.02z M14.221,161.818c-1.909,0-3.457-1.549-3.457-3.457c0-1.91,1.548-3.457,3.457-3.457
	c1.909,0,3.457,1.547,3.457,3.457C17.678,160.27,16.13,161.818,14.221,161.818z"/>
<path fill="#21538F" d="M34.886,152.02c-3.501,0-6.341,2.84-6.341,6.342s2.839,6.34,6.341,6.34c3.502,0,6.342-2.838,6.342-6.34
	S38.388,152.02,34.886,152.02z M34.886,161.818c-1.908,0-3.456-1.549-3.456-3.457c0-1.91,1.548-3.457,3.456-3.457
	c1.91,0,3.458,1.547,3.458,3.457C38.344,160.27,36.796,161.818,34.886,161.818z"/>
<path fill="#21538F" d="M76.219,152.02c-3.502,0-6.341,2.84-6.341,6.342s2.838,6.34,6.341,6.34s6.342-2.838,6.342-6.34
	S79.721,152.02,76.219,152.02z M76.219,161.818c-1.909,0-3.457-1.549-3.457-3.457c0-1.91,1.548-3.457,3.457-3.457
	s3.457,1.547,3.457,3.457C79.676,160.27,78.128,161.818,76.219,161.818z"/>
<path fill="#21538F" d="M95.61,152.02c-3.502,0-6.341,2.84-6.341,6.342s2.839,6.34,6.341,6.34s6.341-2.838,6.341-6.34
	S99.112,152.02,95.61,152.02z M95.61,161.818c-1.91,0-3.457-1.549-3.457-3.457c0-1.91,1.547-3.457,3.457-3.457
	c1.909,0,3.456,1.547,3.456,3.457C99.066,160.27,97.519,161.818,95.61,161.818z"/>
<path fill="#21538F" d="M14.221,174.518c-3.502,0-6.342,2.838-6.342,6.342c0,3.5,2.84,6.34,6.342,6.34
	c3.502,0,6.341-2.84,6.341-6.34C20.562,177.355,17.724,174.518,14.221,174.518z M14.221,184.314c-1.909,0-3.457-1.547-3.457-3.455
	c0-1.91,1.548-3.457,3.457-3.457c1.909,0,3.457,1.547,3.457,3.457C17.678,182.768,16.13,184.314,14.221,184.314z"/>
<path fill="#21538F" d="M108.383,174.518c-3.502,0-6.341,2.838-6.341,6.342c0,3.5,2.839,6.34,6.341,6.34
	c3.501,0,6.342-2.84,6.342-6.34C114.725,177.355,111.885,174.518,108.383,174.518z M108.383,184.314
	c-1.91,0-3.457-1.547-3.457-3.455c0-1.91,1.547-3.457,3.457-3.457c1.909,0,3.457,1.547,3.457,3.457
	C111.84,182.768,110.292,184.314,108.383,184.314z"/>
<path fill="#21538F" d="M215.719,174.518c-3.502,0-6.341,2.838-6.341,6.342c0,3.5,2.839,6.34,6.341,6.34s6.342-2.84,6.342-6.34
	C222.061,177.355,219.221,174.518,215.719,174.518z M215.719,184.314c-1.908,0-3.457-1.547-3.457-3.455
	c0-1.91,1.549-3.457,3.457-3.457c1.91,0,3.458,1.547,3.458,3.457C219.177,182.768,217.629,184.314,215.719,184.314z"/>
<path fill="#21538F" d="M160.75,174.518c-3.501,0-6.341,2.838-6.341,6.342c0,3.5,2.84,6.34,6.341,6.34c3.502,0,6.34-2.84,6.34-6.34
	C167.09,177.355,164.252,174.518,160.75,174.518z M160.75,184.314c-1.908,0-3.456-1.547-3.456-3.455c0-1.91,1.548-3.457,3.456-3.457
	s3.457,1.547,3.457,3.457C164.207,182.768,162.658,184.314,160.75,184.314z"/>
<path fill="#21538F" d="M80.442,174.518c-3.502,0-6.341,2.838-6.341,6.342c0,3.5,2.838,6.34,6.341,6.34c3.502,0,6.34-2.84,6.34-6.34
	C86.782,177.355,83.944,174.518,80.442,174.518z M80.442,184.314c-1.909,0-3.458-1.547-3.458-3.455c0-1.91,1.548-3.457,3.458-3.457
	c1.909,0,3.457,1.547,3.457,3.457C83.899,182.768,82.351,184.314,80.442,184.314z"/>
<path fill="#21538F" d="M141.623,152.02c-3.502,0-6.342,2.84-6.342,6.342s2.84,6.34,6.342,6.34c3.503,0,6.342-2.838,6.342-6.34
	S145.126,152.02,141.623,152.02z M141.623,161.818c-1.909,0-3.456-1.549-3.456-3.457c0-1.91,1.547-3.457,3.456-3.457
	s3.458,1.547,3.458,3.457C145.081,160.27,143.532,161.818,141.623,161.818z"/>
<path fill="#21538F" d="M203.621,152.02c-3.502,0-6.341,2.84-6.341,6.342s2.839,6.34,6.341,6.34s6.34-2.838,6.34-6.34
	S207.123,152.02,203.621,152.02z M203.621,161.818c-1.91,0-3.457-1.549-3.457-3.457c0-1.91,1.547-3.457,3.457-3.457
	s3.457,1.547,3.457,3.457C207.078,160.27,205.531,161.818,203.621,161.818z"/>
<path fill="#21538F" d="M223.013,152.02c-3.503,0-6.342,2.84-6.342,6.342s2.839,6.34,6.342,6.34c3.501,0,6.341-2.838,6.341-6.34
	S226.514,152.02,223.013,152.02z M223.013,161.818c-1.91,0-3.457-1.549-3.457-3.457c0-1.91,1.547-3.457,3.457-3.457
	c1.909,0,3.456,1.547,3.456,3.457C226.469,160.27,224.922,161.818,223.013,161.818z"/>
<path fill="#21538F" d="M14.221,2c-3.502,0-6.342,2.84-6.342,6.342s2.84,6.342,6.342,6.342c3.502,0,6.341-2.84,6.341-6.342
	S17.724,2,14.221,2z M14.221,11.799c-1.909,0-3.457-1.549-3.457-3.457s1.548-3.457,3.457-3.457c1.909,0,3.457,1.549,3.457,3.457
	S16.13,11.799,14.221,11.799z"/>
<path fill="#21538F" d="M34.886,2c-3.501,0-6.341,2.84-6.341,6.342s2.839,6.342,6.341,6.342c3.502,0,6.342-2.84,6.342-6.342
	S38.388,2,34.886,2z M34.886,11.799c-1.908,0-3.456-1.549-3.456-3.457s1.548-3.457,3.456-3.457c1.91,0,3.458,1.549,3.458,3.457
	S36.796,11.799,34.886,11.799z"/>
<path fill="#21538F" d="M76.219,2c-3.502,0-6.341,2.84-6.341,6.342s2.838,6.342,6.341,6.342s6.342-2.84,6.342-6.342
	S79.721,2,76.219,2z M76.219,11.799c-1.909,0-3.457-1.549-3.457-3.457s1.548-3.457,3.457-3.457s3.457,1.549,3.457,3.457
	S78.128,11.799,76.219,11.799z"/>
<path fill="#21538F" d="M95.61,2c-3.502,0-6.341,2.84-6.341,6.342s2.839,6.342,6.341,6.342s6.341-2.84,6.341-6.342S99.112,2,95.61,2
	z M95.61,11.799c-1.91,0-3.457-1.549-3.457-3.457s1.547-3.457,3.457-3.457c1.909,0,3.456,1.549,3.456,3.457
	S97.519,11.799,95.61,11.799z"/>
<path fill="#21538F" d="M14.221,24.498c-3.502,0-6.342,2.838-6.342,6.34c0,3.504,2.84,6.342,6.342,6.342
	c3.502,0,6.341-2.838,6.341-6.342C20.562,27.336,17.724,24.498,14.221,24.498z M14.221,34.295c-1.909,0-3.457-1.547-3.457-3.457
	c0-1.908,1.548-3.455,3.457-3.455c1.909,0,3.457,1.547,3.457,3.455C17.678,32.748,16.13,34.295,14.221,34.295z"/>
<path fill="#21538F" d="M108.383,24.498c-3.502,0-6.341,2.838-6.341,6.34c0,3.504,2.839,6.342,6.341,6.342
	c3.501,0,6.342-2.838,6.342-6.342C114.725,27.336,111.885,24.498,108.383,24.498z M108.383,34.295c-1.91,0-3.457-1.547-3.457-3.457
	c0-1.908,1.547-3.455,3.457-3.455c1.909,0,3.457,1.547,3.457,3.455C111.84,32.748,110.292,34.295,108.383,34.295z"/>
<path fill="#21538F" d="M215.719,24.498c-3.502,0-6.341,2.838-6.341,6.34c0,3.504,2.839,6.342,6.341,6.342s6.342-2.838,6.342-6.342
	C222.061,27.336,219.221,24.498,215.719,24.498z M215.719,34.295c-1.908,0-3.457-1.547-3.457-3.457c0-1.908,1.549-3.455,3.457-3.455
	c1.91,0,3.458,1.547,3.458,3.455C219.177,32.748,217.629,34.295,215.719,34.295z"/>
<path fill="#21538F" d="M160.75,24.498c-3.501,0-6.341,2.838-6.341,6.34c0,3.504,2.84,6.342,6.341,6.342
	c3.502,0,6.34-2.838,6.34-6.342C167.09,27.336,164.252,24.498,160.75,24.498z M160.75,34.295c-1.908,0-3.456-1.547-3.456-3.457
	c0-1.908,1.548-3.455,3.456-3.455s3.457,1.547,3.457,3.455C164.207,32.748,162.658,34.295,160.75,34.295z"/>
<path fill="#21538F" d="M80.442,24.498c-3.502,0-6.341,2.838-6.341,6.34c0,3.504,2.838,6.342,6.341,6.342
	c3.502,0,6.34-2.838,6.34-6.342C86.782,27.336,83.944,24.498,80.442,24.498z M80.442,34.295c-1.909,0-3.458-1.547-3.458-3.457
	c0-1.908,1.548-3.455,3.458-3.455c1.909,0,3.457,1.547,3.457,3.455C83.899,32.748,82.351,34.295,80.442,34.295z"/>
<path fill="#21538F" d="M141.623,2c-3.502,0-6.342,2.84-6.342,6.342s2.84,6.342,6.342,6.342c3.503,0,6.342-2.84,6.342-6.342
	S145.126,2,141.623,2z M141.623,11.799c-1.909,0-3.456-1.549-3.456-3.457s1.547-3.457,3.456-3.457s3.458,1.549,3.458,3.457
	S143.532,11.799,141.623,11.799z"/>
<path fill="#21538F" d="M203.621,2c-3.502,0-6.341,2.84-6.341,6.342s2.839,6.342,6.341,6.342s6.34-2.84,6.34-6.342
	S207.123,2,203.621,2z M203.621,11.799c-1.91,0-3.457-1.549-3.457-3.457s1.547-3.457,3.457-3.457s3.457,1.549,3.457,3.457
	S205.531,11.799,203.621,11.799z"/>
<path fill="#21538F" d="M223.013,2c-3.503,0-6.342,2.84-6.342,6.342s2.839,6.342,6.342,6.342c3.501,0,6.341-2.84,6.341-6.342
	S226.514,2,223.013,2z M223.013,11.799c-1.91,0-3.457-1.549-3.457-3.457s1.547-3.457,3.457-3.457c1.909,0,3.456,1.549,3.456,3.457
	S224.922,11.799,223.013,11.799z"/>
<path fill="#21538F" d="M180.619,74.594c0-3.502-2.84-6.342-6.342-6.342s-6.342,2.84-6.342,6.342s2.84,6.342,6.342,6.342
	S180.619,78.096,180.619,74.594z M177.734,74.594c0,1.91-1.547,3.457-3.457,3.457c-1.908,0-3.456-1.547-3.456-3.457
	c0-1.908,1.548-3.457,3.456-3.457C176.188,71.137,177.734,72.686,177.734,74.594z"/>
<path fill="#21538F" d="M201.286,74.594c0-3.502-2.841-6.342-6.342-6.342c-3.503,0-6.342,2.84-6.342,6.342s2.839,6.342,6.342,6.342
	C198.445,80.936,201.286,78.096,201.286,74.594z M198.4,74.594c0,1.91-1.547,3.457-3.456,3.457c-1.91,0-3.458-1.547-3.458-3.457
	c0-1.908,1.548-3.457,3.458-3.457C196.854,71.137,198.4,72.686,198.4,74.594z"/>
<path fill="#21538F" d="M242.617,74.594c0-3.502-2.84-6.342-6.342-6.342s-6.342,2.84-6.342,6.342s2.84,6.342,6.342,6.342
	S242.617,78.096,242.617,74.594z M239.732,74.594c0,1.91-1.547,3.457-3.457,3.457c-1.909,0-3.456-1.547-3.456-3.457
	c0-1.908,1.547-3.457,3.456-3.457C238.186,71.137,239.732,72.686,239.732,74.594z"/>
<path fill="#21538F" d="M15.129,74.594c0-3.502-2.839-6.342-6.342-6.342s-6.341,2.84-6.341,6.342s2.838,6.342,6.341,6.342
	S15.129,78.096,15.129,74.594z M12.245,74.594c0,1.91-1.549,3.457-3.458,3.457S5.33,76.504,5.33,74.594
	c0-1.908,1.548-3.457,3.457-3.457S12.245,72.686,12.245,74.594z"/>
<path fill="#21538F" d="M180.619,52.096c0-3.502-2.84-6.342-6.342-6.342s-6.342,2.84-6.342,6.342s2.84,6.342,6.342,6.342
	S180.619,55.598,180.619,52.096z M177.734,52.096c0,1.91-1.547,3.457-3.457,3.457c-1.908,0-3.456-1.547-3.456-3.457
	c0-1.908,1.548-3.455,3.456-3.455C176.188,48.641,177.734,50.188,177.734,52.096z"/>
<path fill="#21538F" d="M27.902,52.096c0-3.502-2.838-6.342-6.342-6.342c-3.501,0-6.341,2.84-6.341,6.342s2.84,6.342,6.341,6.342
	C25.063,58.438,27.902,55.598,27.902,52.096z M25.018,52.096c0,1.91-1.547,3.457-3.458,3.457c-1.909,0-3.456-1.547-3.456-3.457
	c0-1.908,1.547-3.455,3.456-3.455C23.471,48.641,25.018,50.188,25.018,52.096z"/>
<path fill="#21538F" d="M135.238,52.096c0-3.502-2.84-6.342-6.342-6.342s-6.341,2.84-6.341,6.342s2.839,6.342,6.341,6.342
	S135.238,55.598,135.238,52.096z M132.354,52.096c0,1.91-1.548,3.457-3.457,3.457c-1.908,0-3.456-1.547-3.456-3.457
	c0-1.908,1.548-3.455,3.456-3.455C130.806,48.641,132.354,50.188,132.354,52.096z"/>
<path fill="#21538F" d="M80.269,52.096c0-3.502-2.839-6.342-6.341-6.342s-6.341,2.84-6.341,6.342s2.839,6.342,6.341,6.342
	S80.269,55.598,80.269,52.096z M77.385,52.096c0,1.91-1.548,3.457-3.457,3.457s-3.457-1.547-3.457-3.457
	c0-1.908,1.548-3.455,3.457-3.455S77.385,50.188,77.385,52.096z"/>
<path fill="#21538F" d="M242.158,52.096c0-3.502-2.84-6.342-6.342-6.342s-6.342,2.84-6.342,6.342s2.84,6.342,6.342,6.342
	S242.158,55.598,242.158,52.096z M239.273,52.096c0,1.91-1.549,3.457-3.457,3.457c-1.909,0-3.457-1.547-3.457-3.457
	c0-1.908,1.548-3.455,3.457-3.455C237.725,48.641,239.273,50.188,239.273,52.096z"/>
<path fill="#21538F" d="M61.142,74.594c0-3.502-2.839-6.342-6.341-6.342c-3.503,0-6.342,2.84-6.342,6.342s2.838,6.342,6.342,6.342
	C58.303,80.936,61.142,78.096,61.142,74.594z M58.257,74.594c0,1.91-1.548,3.457-3.456,3.457c-1.91,0-3.458-1.547-3.458-3.457
	c0-1.908,1.548-3.457,3.458-3.457C56.709,71.137,58.257,72.686,58.257,74.594z"/>
<path fill="#21538F" d="M81.808,74.594c0-3.502-2.838-6.342-6.342-6.342c-3.501,0-6.34,2.84-6.34,6.342s2.839,6.342,6.34,6.342
	C78.969,80.936,81.808,78.096,81.808,74.594z M78.923,74.594c0,1.91-1.547,3.457-3.457,3.457c-1.908,0-3.456-1.547-3.456-3.457
	c0-1.908,1.548-3.457,3.456-3.457C77.376,71.137,78.923,72.686,78.923,74.594z"/>
<path fill="#21538F" d="M123.14,74.594c0-3.502-2.839-6.342-6.341-6.342c-3.503,0-6.341,2.84-6.341,6.342s2.837,6.342,6.341,6.342
	C120.301,80.936,123.14,78.096,123.14,74.594z M120.256,74.594c0,1.91-1.548,3.457-3.457,3.457c-1.91,0-3.457-1.547-3.457-3.457
	c0-1.908,1.547-3.457,3.457-3.457C118.708,71.137,120.256,72.686,120.256,74.594z"/>
<path fill="#21538F" d="M142.531,74.594c0-3.502-2.84-6.342-6.342-6.342s-6.341,2.84-6.341,6.342s2.839,6.342,6.341,6.342
	S142.531,78.096,142.531,74.594z M139.646,74.594c0,1.91-1.548,3.457-3.457,3.457c-1.908,0-3.456-1.547-3.456-3.457
	c0-1.908,1.548-3.457,3.456-3.457C138.099,71.137,139.646,72.686,139.646,74.594z"/>
<path fill="#21538F" d="M224.501,92.324c0,3.504,2.839,6.342,6.342,6.342c3.501,0,6.341-2.838,6.341-6.342
	c0-3.502-2.84-6.342-6.341-6.342C227.34,85.982,224.501,88.822,224.501,92.324z M227.385,92.324c0-1.908,1.547-3.457,3.458-3.457
	c1.908,0,3.456,1.549,3.456,3.457c0,1.91-1.548,3.459-3.456,3.459C228.932,95.783,227.385,94.234,227.385,92.324z"/>
<path fill="#21538F" d="M169.416,92.324c0,3.504,2.84,6.342,6.343,6.342c3.502,0,6.341-2.838,6.341-6.342
	c0-3.502-2.839-6.342-6.341-6.342C172.256,85.982,169.416,88.822,169.416,92.324z M172.301,92.324c0-1.908,1.547-3.457,3.458-3.457
	c1.909,0,3.456,1.549,3.456,3.457c0,1.91-1.547,3.459-3.456,3.459C173.848,95.783,172.301,94.234,172.301,92.324z"/>
<path fill="#21538F" d="M128.085,92.324c0,3.504,2.84,6.342,6.341,6.342c3.503,0,6.341-2.838,6.341-6.342
	c0-3.502-2.838-6.342-6.341-6.342C130.925,85.982,128.085,88.822,128.085,92.324z M130.97,92.324c0-1.908,1.547-3.457,3.456-3.457
	s3.457,1.549,3.457,3.457c0,1.91-1.548,3.459-3.457,3.459S130.97,94.234,130.97,92.324z"/>
<path fill="#21538F" d="M111.624,92.324c0,3.504,2.839,6.342,6.341,6.342c3.502,0,6.341-2.838,6.341-6.342
	c0-3.502-2.839-6.342-6.341-6.342C114.463,85.982,111.624,88.822,111.624,92.324z M114.508,92.324c0-1.908,1.547-3.457,3.457-3.457
	s3.457,1.549,3.457,3.457c0,1.91-1.548,3.459-3.457,3.459S114.508,94.234,114.508,92.324z"/>
<path fill="#21538F" d="M224.501,114.822c0,3.504,2.839,6.342,6.342,6.342c3.501,0,6.341-2.838,6.341-6.342
	c0-3.502-2.84-6.342-6.341-6.342C227.34,108.48,224.501,111.32,224.501,114.822z M227.385,114.822c0-1.91,1.547-3.457,3.458-3.457
	c1.908,0,3.456,1.547,3.456,3.457c0,1.908-1.548,3.457-3.456,3.457C228.932,118.279,227.385,116.73,227.385,114.822z"/>
<path fill="#21538F" d="M133.268,114.822c0,3.504,2.84,6.342,6.342,6.342s6.341-2.838,6.341-6.342c0-3.502-2.839-6.342-6.341-6.342
	S133.268,111.32,133.268,114.822z M136.153,114.822c0-1.91,1.547-3.457,3.456-3.457s3.456,1.547,3.456,3.457
	c0,1.908-1.547,3.457-3.456,3.457S136.153,116.73,136.153,114.822z"/>
<path fill="#21538F" d="M23.003,114.822c0,3.504,2.838,6.342,6.341,6.342c3.502,0,6.341-2.838,6.341-6.342
	c0-3.502-2.839-6.342-6.341-6.342C25.841,108.48,23.003,111.32,23.003,114.822z M25.886,114.822c0-1.91,1.548-3.457,3.458-3.457
	c1.909,0,3.457,1.547,3.457,3.457c0,1.908-1.548,3.457-3.457,3.457C27.435,118.279,25.886,116.73,25.886,114.822z"/>
<path fill="#21538F" d="M53.473,114.822c0,3.504,2.839,6.342,6.341,6.342c3.502,0,6.34-2.838,6.34-6.342
	c0-3.502-2.838-6.342-6.34-6.342C56.312,108.48,53.473,111.32,53.473,114.822z M56.356,114.822c0-1.91,1.548-3.457,3.457-3.457
	s3.457,1.547,3.457,3.457c0,1.908-1.548,3.457-3.457,3.457S56.356,116.73,56.356,114.822z"/>
<path fill="#21538F" d="M158.279,114.822c0,3.504,2.84,6.342,6.341,6.342c3.503,0,6.342-2.838,6.342-6.342
	c0-3.502-2.839-6.342-6.342-6.342C161.119,108.48,158.279,111.32,158.279,114.822z M161.164,114.822c0-1.91,1.549-3.457,3.456-3.457
	c1.911,0,3.458,1.547,3.458,3.457c0,1.908-1.547,3.457-3.458,3.457C162.713,118.279,161.164,116.73,161.164,114.822z"/>
<path fill="#21538F" d="M76.432,92.324c0,3.504,2.84,6.342,6.342,6.342c3.501,0,6.34-2.838,6.34-6.342
	c0-3.502-2.839-6.342-6.34-6.342C79.271,85.982,76.432,88.822,76.432,92.324z M79.316,92.324c0-1.908,1.548-3.457,3.458-3.457
	c1.909,0,3.456,1.549,3.456,3.457c0,1.91-1.546,3.459-3.456,3.459C80.864,95.783,79.316,94.234,79.316,92.324z"/>
<path fill="#21538F" d="M35.101,92.324c0,3.504,2.838,6.342,6.34,6.342c3.503,0,6.343-2.838,6.343-6.342
	c0-3.502-2.84-6.342-6.343-6.342C37.938,85.982,35.101,88.822,35.101,92.324z M37.985,92.324c0-1.908,1.548-3.457,3.456-3.457
	c1.91,0,3.458,1.549,3.458,3.457c0,1.91-1.548,3.459-3.458,3.459C39.533,95.783,37.985,94.234,37.985,92.324z"/>
<path fill="#21538F" d="M15.71,92.324c0,3.504,2.839,6.342,6.341,6.342c3.501,0,6.341-2.838,6.341-6.342
	c0-3.502-2.84-6.342-6.341-6.342C18.549,85.982,15.71,88.822,15.71,92.324z M18.594,92.324c0-1.908,1.547-3.457,3.457-3.457
	c1.909,0,3.456,1.549,3.456,3.457c0,1.91-1.547,3.459-3.456,3.459C20.141,95.783,18.594,94.234,18.594,92.324z"/>
<path fill="#21538F" d="M108.295,121.299c3.503,0,6.342-2.838,6.342-6.34c0-3.504-2.839-6.342-6.342-6.342
	c-3.501,0-6.341,2.838-6.341,6.342C101.954,118.461,104.794,121.299,108.295,121.299z M108.295,111.502
	c1.909,0,3.457,1.549,3.457,3.457s-1.548,3.455-3.457,3.455s-3.457-1.547-3.457-3.455S106.386,111.502,108.295,111.502z"/>
<path fill="#21538F" d="M87.63,121.299c3.502,0,6.34-2.838,6.34-6.34c0-3.504-2.838-6.342-6.34-6.342s-6.341,2.838-6.341,6.342
	C81.289,118.461,84.128,121.299,87.63,121.299z M87.63,111.502c1.909,0,3.457,1.549,3.457,3.457s-1.548,3.455-3.457,3.455
	s-3.457-1.547-3.457-3.455S85.721,111.502,87.63,111.502z"/>
<path fill="#21538F" d="M190.621,142.377c3.503,0,6.342-2.84,6.342-6.34c0-3.504-2.839-6.342-6.342-6.342s-6.342,2.838-6.342,6.342
	C184.279,139.537,187.118,142.377,190.621,142.377z M190.621,132.58c1.909,0,3.457,1.549,3.457,3.457
	c0,1.906-1.548,3.455-3.457,3.455c-1.91,0-3.457-1.549-3.457-3.455C187.164,134.129,188.711,132.58,190.621,132.58z"/>
<path fill="#21538F" d="M46.285,142.42c3.502,0,6.342-2.838,6.342-6.34s-2.84-6.342-6.342-6.342s-6.341,2.84-6.341,6.342
	S42.783,142.42,46.285,142.42z M46.285,132.623c1.909,0,3.457,1.549,3.457,3.457s-1.548,3.457-3.457,3.457s-3.458-1.549-3.458-3.457
	S44.376,132.623,46.285,132.623z"/>
<path fill="#21538F" d="M223.503,142.42c3.501,0,6.34-2.838,6.34-6.34s-2.839-6.342-6.34-6.342c-3.503,0-6.342,2.84-6.342,6.342
	S220,142.42,223.503,142.42z M223.503,132.623c1.908,0,3.456,1.549,3.456,3.457s-1.548,3.457-3.456,3.457
	c-1.91,0-3.458-1.549-3.458-3.457S221.593,132.623,223.503,132.623z"/>
<path fill="#21538F" d="M116.167,142.42c3.501,0,6.341-2.838,6.341-6.34s-2.84-6.342-6.341-6.342c-3.502,0-6.342,2.84-6.342,6.342
	S112.665,142.42,116.167,142.42z M116.167,132.623c1.908,0,3.456,1.549,3.456,3.457s-1.548,3.457-3.456,3.457
	c-1.91,0-3.458-1.549-3.458-3.457S114.257,132.623,116.167,132.623z"/>
<path fill="#21538F" d="M149.24,142.42c3.502,0,6.341-2.838,6.341-6.34s-2.839-6.342-6.341-6.342s-6.342,2.84-6.342,6.342
	S145.738,142.42,149.24,142.42z M149.24,132.623c1.908,0,3.456,1.549,3.456,3.457s-1.548,3.457-3.456,3.457
	c-1.91,0-3.458-1.549-3.458-3.457S147.33,132.623,149.24,132.623z"/>
<path fill="#21538F" d="M9.247,142.42c3.501,0,6.341-2.838,6.341-6.34s-2.839-6.342-6.341-6.342c-3.502,0-6.341,2.84-6.341,6.342
	S5.745,142.42,9.247,142.42z M9.247,132.623c1.909,0,3.457,1.549,3.457,3.457s-1.548,3.457-3.457,3.457
	c-1.909,0-3.457-1.549-3.457-3.457S7.338,132.623,9.247,132.623z"/>
<path fill="#21538F" d="M474.475,37.18c3.502,0,6.342-2.84,6.342-6.342s-2.84-6.34-6.342-6.34c-3.502,0-6.341,2.838-6.341,6.34
	S470.973,37.18,474.475,37.18z M474.475,27.381c1.909,0,3.457,1.549,3.457,3.457c0,1.91-1.548,3.457-3.457,3.457
	c-1.909,0-3.457-1.547-3.457-3.457C471.019,28.93,472.566,27.381,474.475,27.381z"/>
<path fill="#21538F" d="M453.81,37.18c3.501,0,6.341-2.84,6.341-6.342s-2.839-6.34-6.341-6.34c-3.502,0-6.342,2.838-6.342,6.34
	S450.308,37.18,453.81,37.18z M453.81,27.381c1.908,0,3.456,1.549,3.456,3.457c0,1.91-1.548,3.457-3.456,3.457
	c-1.91,0-3.458-1.547-3.458-3.457C450.353,28.93,451.9,27.381,453.81,27.381z"/>
<path fill="#21538F" d="M412.478,37.18c3.502,0,6.341-2.84,6.341-6.342s-2.838-6.34-6.341-6.34s-6.342,2.838-6.342,6.34
	S408.975,37.18,412.478,37.18z M412.478,27.381c1.909,0,3.457,1.549,3.457,3.457c0,1.91-1.548,3.457-3.457,3.457
	s-3.457-1.547-3.457-3.457C409.021,28.93,410.568,27.381,412.478,27.381z"/>
<path fill="#21538F" d="M393.086,37.18c3.502,0,6.341-2.84,6.341-6.342s-2.839-6.34-6.341-6.34s-6.341,2.838-6.341,6.34
	S389.584,37.18,393.086,37.18z M393.086,27.381c1.91,0,3.457,1.549,3.457,3.457c0,1.91-1.547,3.457-3.457,3.457
	c-1.909,0-3.456-1.547-3.456-3.457C389.63,28.93,391.177,27.381,393.086,27.381z"/>
<path fill="#21538F" d="M474.475,14.682c3.502,0,6.342-2.838,6.342-6.342c0-3.5-2.84-6.34-6.342-6.34
	c-3.502,0-6.341,2.84-6.341,6.34C468.134,11.844,470.973,14.682,474.475,14.682z M474.475,4.885c1.909,0,3.457,1.547,3.457,3.455
	c0,1.91-1.548,3.457-3.457,3.457c-1.909,0-3.457-1.547-3.457-3.457C471.019,6.432,472.566,4.885,474.475,4.885z"/>
<path fill="#21538F" d="M380.313,14.682c3.502,0,6.341-2.838,6.341-6.342c0-3.5-2.839-6.34-6.341-6.34
	c-3.501,0-6.342,2.84-6.342,6.34C373.971,11.844,376.812,14.682,380.313,14.682z M380.313,4.885c1.91,0,3.457,1.547,3.457,3.455
	c0,1.91-1.547,3.457-3.457,3.457c-1.909,0-3.457-1.547-3.457-3.457C376.856,6.432,378.404,4.885,380.313,4.885z"/>
<path fill="#21538F" d="M272.978,14.682c3.502,0,6.341-2.838,6.341-6.342c0-3.5-2.839-6.34-6.341-6.34s-6.342,2.84-6.342,6.34
	C266.636,11.844,269.476,14.682,272.978,14.682z M272.978,4.885c1.908,0,3.457,1.547,3.457,3.455c0,1.91-1.549,3.457-3.457,3.457
	c-1.91,0-3.458-1.547-3.458-3.457C269.52,6.432,271.067,4.885,272.978,4.885z"/>
<path fill="#21538F" d="M327.946,14.682c3.501,0,6.341-2.838,6.341-6.342c0-3.5-2.84-6.34-6.341-6.34c-3.502,0-6.34,2.84-6.34,6.34
	C321.606,11.844,324.444,14.682,327.946,14.682z M327.946,4.885c1.908,0,3.456,1.547,3.456,3.455c0,1.91-1.548,3.457-3.456,3.457
	s-3.457-1.547-3.457-3.457C324.489,6.432,326.038,4.885,327.946,4.885z"/>
<path fill="#21538F" d="M408.254,14.682c3.502,0,6.341-2.838,6.341-6.342c0-3.5-2.838-6.34-6.341-6.34c-3.502,0-6.34,2.84-6.34,6.34
	C401.914,11.844,404.752,14.682,408.254,14.682z M408.254,4.885c1.909,0,3.458,1.547,3.458,3.455c0,1.91-1.548,3.457-3.458,3.457
	c-1.909,0-3.457-1.547-3.457-3.457C404.797,6.432,406.346,4.885,408.254,4.885z"/>
<path fill="#21538F" d="M347.073,37.18c3.502,0,6.342-2.84,6.342-6.342s-2.84-6.34-6.342-6.34c-3.503,0-6.342,2.838-6.342,6.34
	S343.57,37.18,347.073,37.18z M347.073,27.381c1.909,0,3.456,1.549,3.456,3.457c0,1.91-1.547,3.457-3.456,3.457
	s-3.458-1.547-3.458-3.457C343.615,28.93,345.164,27.381,347.073,27.381z"/>
<path fill="#21538F" d="M285.075,37.18c3.502,0,6.341-2.84,6.341-6.342s-2.839-6.34-6.341-6.34s-6.34,2.838-6.34,6.34
	S281.573,37.18,285.075,37.18z M285.075,27.381c1.91,0,3.457,1.549,3.457,3.457c0,1.91-1.547,3.457-3.457,3.457
	s-3.457-1.547-3.457-3.457C281.618,28.93,283.165,27.381,285.075,27.381z"/>
<path fill="#21538F" d="M265.684,37.18c3.503,0,6.342-2.84,6.342-6.342s-2.839-6.34-6.342-6.34c-3.501,0-6.341,2.838-6.341,6.34
	S262.183,37.18,265.684,37.18z M265.684,27.381c1.91,0,3.457,1.549,3.457,3.457c0,1.91-1.547,3.457-3.457,3.457
	c-1.909,0-3.456-1.547-3.456-3.457C262.228,28.93,263.774,27.381,265.684,27.381z"/>
<path fill="#21538F" d="M474.475,187.199c3.502,0,6.342-2.84,6.342-6.342s-2.84-6.342-6.342-6.342c-3.502,0-6.341,2.84-6.341,6.342
	S470.973,187.199,474.475,187.199z M474.475,177.4c1.909,0,3.457,1.549,3.457,3.457s-1.548,3.457-3.457,3.457
	c-1.909,0-3.457-1.549-3.457-3.457S472.566,177.4,474.475,177.4z"/>
<path fill="#21538F" d="M453.81,187.199c3.501,0,6.341-2.84,6.341-6.342s-2.839-6.342-6.341-6.342c-3.502,0-6.342,2.84-6.342,6.342
	S450.308,187.199,453.81,187.199z M453.81,177.4c1.908,0,3.456,1.549,3.456,3.457s-1.548,3.457-3.456,3.457
	c-1.91,0-3.458-1.549-3.458-3.457S451.9,177.4,453.81,177.4z"/>
<path fill="#21538F" d="M412.478,187.199c3.502,0,6.341-2.84,6.341-6.342s-2.838-6.342-6.341-6.342s-6.342,2.84-6.342,6.342
	S408.975,187.199,412.478,187.199z M412.478,177.4c1.909,0,3.457,1.549,3.457,3.457s-1.548,3.457-3.457,3.457
	s-3.457-1.549-3.457-3.457S410.568,177.4,412.478,177.4z"/>
<path fill="#21538F" d="M393.086,187.199c3.502,0,6.341-2.84,6.341-6.342s-2.839-6.342-6.341-6.342s-6.341,2.84-6.341,6.342
	S389.584,187.199,393.086,187.199z M393.086,177.4c1.91,0,3.457,1.549,3.457,3.457s-1.547,3.457-3.457,3.457
	c-1.909,0-3.456-1.549-3.456-3.457S391.177,177.4,393.086,177.4z"/>
<path fill="#21538F" d="M474.475,164.701c3.502,0,6.342-2.838,6.342-6.34c0-3.504-2.84-6.342-6.342-6.342
	c-3.502,0-6.341,2.838-6.341,6.342C468.134,161.863,470.973,164.701,474.475,164.701z M474.475,154.904
	c1.909,0,3.457,1.547,3.457,3.457c0,1.908-1.548,3.455-3.457,3.455c-1.909,0-3.457-1.547-3.457-3.455
	C471.019,156.451,472.566,154.904,474.475,154.904z"/>
<path fill="#21538F" d="M380.313,164.701c3.502,0,6.341-2.838,6.341-6.34c0-3.504-2.839-6.342-6.341-6.342
	c-3.501,0-6.342,2.838-6.342,6.342C373.971,161.863,376.812,164.701,380.313,164.701z M380.313,154.904
	c1.91,0,3.457,1.547,3.457,3.457c0,1.908-1.547,3.455-3.457,3.455c-1.909,0-3.457-1.547-3.457-3.455
	C376.856,156.451,378.404,154.904,380.313,154.904z"/>
<path fill="#21538F" d="M272.978,164.701c3.502,0,6.341-2.838,6.341-6.34c0-3.504-2.839-6.342-6.341-6.342s-6.342,2.838-6.342,6.342
	C266.636,161.863,269.476,164.701,272.978,164.701z M272.978,154.904c1.908,0,3.457,1.547,3.457,3.457
	c0,1.908-1.549,3.455-3.457,3.455c-1.91,0-3.458-1.547-3.458-3.455C269.52,156.451,271.067,154.904,272.978,154.904z"/>
<path fill="#21538F" d="M327.946,164.701c3.501,0,6.341-2.838,6.341-6.34c0-3.504-2.84-6.342-6.341-6.342
	c-3.502,0-6.34,2.838-6.34,6.342C321.606,161.863,324.444,164.701,327.946,164.701z M327.946,154.904
	c1.908,0,3.456,1.547,3.456,3.457c0,1.908-1.548,3.455-3.456,3.455s-3.457-1.547-3.457-3.455
	C324.489,156.451,326.038,154.904,327.946,154.904z"/>
<path fill="#21538F" d="M408.254,164.701c3.502,0,6.341-2.838,6.341-6.34c0-3.504-2.838-6.342-6.341-6.342
	c-3.502,0-6.34,2.838-6.34,6.342C401.914,161.863,404.752,164.701,408.254,164.701z M408.254,154.904
	c1.909,0,3.458,1.547,3.458,3.457c0,1.908-1.548,3.455-3.458,3.455c-1.909,0-3.457-1.547-3.457-3.455
	C404.797,156.451,406.346,154.904,408.254,154.904z"/>
<path fill="#21538F" d="M347.073,187.199c3.502,0,6.342-2.84,6.342-6.342s-2.84-6.342-6.342-6.342c-3.503,0-6.342,2.84-6.342,6.342
	S343.57,187.199,347.073,187.199z M347.073,177.4c1.909,0,3.456,1.549,3.456,3.457s-1.547,3.457-3.456,3.457
	s-3.458-1.549-3.458-3.457S345.164,177.4,347.073,177.4z"/>
<path fill="#21538F" d="M285.075,187.199c3.502,0,6.341-2.84,6.341-6.342s-2.839-6.342-6.341-6.342s-6.34,2.84-6.34,6.342
	S281.573,187.199,285.075,187.199z M285.075,177.4c1.91,0,3.457,1.549,3.457,3.457s-1.547,3.457-3.457,3.457
	s-3.457-1.549-3.457-3.457S283.165,177.4,285.075,177.4z"/>
<path fill="#21538F" d="M265.684,187.199c3.503,0,6.342-2.84,6.342-6.342s-2.839-6.342-6.342-6.342c-3.501,0-6.341,2.84-6.341,6.342
	S262.183,187.199,265.684,187.199z M265.684,177.4c1.91,0,3.457,1.549,3.457,3.457s-1.547,3.457-3.457,3.457
	c-1.909,0-3.456-1.549-3.456-3.457S263.774,177.4,265.684,177.4z"/>
<path fill="#21538F" d="M308.077,114.605c0,3.502,2.84,6.342,6.342,6.342s6.342-2.84,6.342-6.342s-2.84-6.342-6.342-6.342
	S308.077,111.104,308.077,114.605z M310.962,114.605c0-1.91,1.547-3.457,3.457-3.457c1.908,0,3.456,1.547,3.456,3.457
	c0,1.908-1.548,3.457-3.456,3.457C312.509,118.062,310.962,116.514,310.962,114.605z"/>
<path fill="#21538F" d="M287.41,114.605c0,3.502,2.841,6.342,6.342,6.342c3.503,0,6.342-2.84,6.342-6.342s-2.839-6.342-6.342-6.342
	C290.251,108.264,287.41,111.104,287.41,114.605z M290.296,114.605c0-1.91,1.547-3.457,3.456-3.457c1.91,0,3.458,1.547,3.458,3.457
	c0,1.908-1.548,3.457-3.458,3.457C291.843,118.062,290.296,116.514,290.296,114.605z"/>
<path fill="#21538F" d="M246.079,114.605c0,3.502,2.84,6.342,6.342,6.342s6.342-2.84,6.342-6.342s-2.84-6.342-6.342-6.342
	S246.079,111.104,246.079,114.605z M248.964,114.605c0-1.91,1.547-3.457,3.457-3.457c1.909,0,3.456,1.547,3.456,3.457
	c0,1.908-1.547,3.457-3.456,3.457C250.511,118.062,248.964,116.514,248.964,114.605z"/>
<path fill="#21538F" d="M473.567,114.605c0,3.502,2.839,6.342,6.342,6.342s6.341-2.84,6.341-6.342s-2.838-6.342-6.341-6.342
	S473.567,111.104,473.567,114.605z M476.451,114.605c0-1.91,1.549-3.457,3.458-3.457s3.457,1.547,3.457,3.457
	c0,1.908-1.548,3.457-3.457,3.457S476.451,116.514,476.451,114.605z"/>
<path fill="#21538F" d="M308.077,137.104c0,3.502,2.84,6.342,6.342,6.342s6.342-2.84,6.342-6.342s-2.84-6.342-6.342-6.342
	S308.077,133.602,308.077,137.104z M310.962,137.104c0-1.91,1.547-3.457,3.457-3.457c1.908,0,3.456,1.547,3.456,3.457
	c0,1.908-1.548,3.455-3.456,3.455C312.509,140.559,310.962,139.012,310.962,137.104z"/>
<path fill="#21538F" d="M460.794,137.104c0,3.502,2.838,6.342,6.342,6.342c3.501,0,6.341-2.84,6.341-6.342s-2.84-6.342-6.341-6.342
	C463.633,130.762,460.794,133.602,460.794,137.104z M463.679,137.104c0-1.91,1.547-3.457,3.458-3.457
	c1.909,0,3.456,1.547,3.456,3.457c0,1.908-1.547,3.455-3.456,3.455C465.226,140.559,463.679,139.012,463.679,137.104z"/>
<path fill="#21538F" d="M353.458,137.104c0,3.502,2.84,6.342,6.342,6.342s6.341-2.84,6.341-6.342s-2.839-6.342-6.341-6.342
	S353.458,133.602,353.458,137.104z M356.343,137.104c0-1.91,1.548-3.457,3.457-3.457c1.908,0,3.456,1.547,3.456,3.457
	c0,1.908-1.548,3.455-3.456,3.455C357.891,140.559,356.343,139.012,356.343,137.104z"/>
<path fill="#21538F" d="M408.428,137.104c0,3.502,2.839,6.342,6.341,6.342s6.341-2.84,6.341-6.342s-2.839-6.342-6.341-6.342
	S408.428,133.602,408.428,137.104z M411.312,137.104c0-1.91,1.548-3.457,3.457-3.457s3.457,1.547,3.457,3.457
	c0,1.908-1.548,3.455-3.457,3.455S411.312,139.012,411.312,137.104z"/>
<path fill="#21538F" d="M246.538,137.104c0,3.502,2.84,6.342,6.342,6.342s6.342-2.84,6.342-6.342s-2.84-6.342-6.342-6.342
	S246.538,133.602,246.538,137.104z M249.423,137.104c0-1.91,1.549-3.457,3.457-3.457c1.909,0,3.457,1.547,3.457,3.457
	c0,1.908-1.548,3.455-3.457,3.455C250.972,140.559,249.423,139.012,249.423,137.104z"/>
<path fill="#21538F" d="M427.554,114.605c0,3.502,2.839,6.342,6.341,6.342c3.503,0,6.342-2.84,6.342-6.342s-2.838-6.342-6.342-6.342
	C430.393,108.264,427.554,111.104,427.554,114.605z M430.439,114.605c0-1.91,1.548-3.457,3.456-3.457
	c1.91,0,3.458,1.547,3.458,3.457c0,1.908-1.548,3.457-3.458,3.457C431.987,118.062,430.439,116.514,430.439,114.605z"/>
<path fill="#21538F" d="M406.889,114.605c0,3.502,2.838,6.342,6.342,6.342c3.501,0,6.34-2.84,6.34-6.342s-2.839-6.342-6.34-6.342
	C409.727,108.264,406.889,111.104,406.889,114.605z M409.773,114.605c0-1.91,1.547-3.457,3.457-3.457
	c1.908,0,3.456,1.547,3.456,3.457c0,1.908-1.548,3.457-3.456,3.457C411.32,118.062,409.773,116.514,409.773,114.605z"/>
<path fill="#21538F" d="M365.557,114.605c0,3.502,2.839,6.342,6.341,6.342c3.503,0,6.341-2.84,6.341-6.342s-2.837-6.342-6.341-6.342
	C368.396,108.264,365.557,111.104,365.557,114.605z M368.44,114.605c0-1.91,1.548-3.457,3.457-3.457c1.91,0,3.457,1.547,3.457,3.457
	c0,1.908-1.547,3.457-3.457,3.457C369.988,118.062,368.44,116.514,368.44,114.605z"/>
<path fill="#21538F" d="M346.165,114.605c0,3.502,2.84,6.342,6.342,6.342s6.341-2.84,6.341-6.342s-2.839-6.342-6.341-6.342
	S346.165,111.104,346.165,114.605z M349.05,114.605c0-1.91,1.548-3.457,3.457-3.457c1.908,0,3.456,1.547,3.456,3.457
	c0,1.908-1.548,3.457-3.456,3.457C350.598,118.062,349.05,116.514,349.05,114.605z"/>
<path fill="#21538F" d="M264.195,96.875c0-3.504-2.839-6.342-6.342-6.342c-3.501,0-6.341,2.838-6.341,6.342
	c0,3.502,2.84,6.342,6.341,6.342C261.356,103.217,264.195,100.377,264.195,96.875z M261.312,96.875c0,1.908-1.547,3.457-3.458,3.457
	c-1.908,0-3.456-1.549-3.456-3.457c0-1.91,1.548-3.459,3.456-3.459C259.765,93.416,261.312,94.965,261.312,96.875z"/>
<path fill="#21538F" d="M319.28,96.875c0-3.504-2.84-6.342-6.343-6.342c-3.502,0-6.341,2.838-6.341,6.342
	c0,3.502,2.839,6.342,6.341,6.342C316.44,103.217,319.28,100.377,319.28,96.875z M316.396,96.875c0,1.908-1.547,3.457-3.458,3.457
	c-1.909,0-3.456-1.549-3.456-3.457c0-1.91,1.547-3.459,3.456-3.459C314.849,93.416,316.396,94.965,316.396,96.875z"/>
<path fill="#21538F" d="M360.611,96.875c0-3.504-2.84-6.342-6.341-6.342c-3.503,0-6.341,2.838-6.341,6.342
	c0,3.502,2.838,6.342,6.341,6.342C357.771,103.217,360.611,100.377,360.611,96.875z M357.727,96.875
	c0,1.908-1.547,3.457-3.456,3.457s-3.457-1.549-3.457-3.457c0-1.91,1.548-3.459,3.457-3.459S357.727,94.965,357.727,96.875z"/>
<path fill="#21538F" d="M377.073,96.875c0-3.504-2.839-6.342-6.341-6.342c-3.502,0-6.341,2.838-6.341,6.342
	c0,3.502,2.839,6.342,6.341,6.342C374.233,103.217,377.073,100.377,377.073,96.875z M374.188,96.875
	c0,1.908-1.547,3.457-3.457,3.457s-3.457-1.549-3.457-3.457c0-1.91,1.548-3.459,3.457-3.459S374.188,94.965,374.188,96.875z"/>
<path fill="#21538F" d="M264.195,74.377c0-3.504-2.839-6.342-6.342-6.342c-3.501,0-6.341,2.838-6.341,6.342
	c0,3.502,2.84,6.342,6.341,6.342C261.356,80.719,264.195,77.879,264.195,74.377z M261.312,74.377c0,1.91-1.547,3.457-3.458,3.457
	c-1.908,0-3.456-1.547-3.456-3.457c0-1.908,1.548-3.457,3.456-3.457C259.765,70.92,261.312,72.469,261.312,74.377z"/>
<path fill="#21538F" d="M355.429,74.377c0-3.504-2.84-6.342-6.342-6.342s-6.341,2.838-6.341,6.342c0,3.502,2.839,6.342,6.341,6.342
	S355.429,77.879,355.429,74.377z M352.543,74.377c0,1.91-1.547,3.457-3.456,3.457s-3.456-1.547-3.456-3.457
	c0-1.908,1.547-3.457,3.456-3.457S352.543,72.469,352.543,74.377z"/>
<path fill="#21538F" d="M465.693,74.377c0-3.504-2.838-6.342-6.341-6.342c-3.502,0-6.341,2.838-6.341,6.342
	c0,3.502,2.839,6.342,6.341,6.342C462.855,80.719,465.693,77.879,465.693,74.377z M462.81,74.377c0,1.91-1.548,3.457-3.458,3.457
	c-1.909,0-3.457-1.547-3.457-3.457c0-1.908,1.548-3.457,3.457-3.457C461.262,70.92,462.81,72.469,462.81,74.377z"/>
<path fill="#21538F" d="M435.224,74.377c0-3.504-2.839-6.342-6.341-6.342c-3.502,0-6.34,2.838-6.34,6.342
	c0,3.502,2.838,6.342,6.34,6.342C432.384,80.719,435.224,77.879,435.224,74.377z M432.34,74.377c0,1.91-1.548,3.457-3.457,3.457
	s-3.457-1.547-3.457-3.457c0-1.908,1.548-3.457,3.457-3.457S432.34,72.469,432.34,74.377z"/>
<path fill="#21538F" d="M330.417,74.377c0-3.504-2.84-6.342-6.341-6.342c-3.503,0-6.342,2.838-6.342,6.342
	c0,3.502,2.839,6.342,6.342,6.342C327.577,80.719,330.417,77.879,330.417,74.377z M327.532,74.377c0,1.91-1.549,3.457-3.456,3.457
	c-1.911,0-3.458-1.547-3.458-3.457c0-1.908,1.547-3.457,3.458-3.457C325.983,70.92,327.532,72.469,327.532,74.377z"/>
<path fill="#21538F" d="M412.265,96.875c0-3.504-2.84-6.342-6.342-6.342c-3.501,0-6.34,2.838-6.34,6.342
	c0,3.502,2.839,6.342,6.34,6.342C409.425,103.217,412.265,100.377,412.265,96.875z M409.38,96.875c0,1.908-1.548,3.457-3.458,3.457
	c-1.909,0-3.456-1.549-3.456-3.457c0-1.91,1.546-3.459,3.456-3.459C407.832,93.416,409.38,94.965,409.38,96.875z"/>
<path fill="#21538F" d="M453.596,96.875c0-3.504-2.838-6.342-6.34-6.342c-3.503,0-6.343,2.838-6.343,6.342
	c0,3.502,2.84,6.342,6.343,6.342C450.758,103.217,453.596,100.377,453.596,96.875z M450.711,96.875c0,1.908-1.548,3.457-3.456,3.457
	c-1.91,0-3.458-1.549-3.458-3.457c0-1.91,1.548-3.459,3.458-3.459C449.163,93.416,450.711,94.965,450.711,96.875z"/>
<path fill="#21538F" d="M472.986,96.875c0-3.504-2.839-6.342-6.341-6.342c-3.501,0-6.341,2.838-6.341,6.342
	c0,3.502,2.84,6.342,6.341,6.342C470.147,103.217,472.986,100.377,472.986,96.875z M470.103,96.875c0,1.908-1.547,3.457-3.457,3.457
	c-1.909,0-3.456-1.549-3.456-3.457c0-1.91,1.547-3.459,3.456-3.459C468.556,93.416,470.103,94.965,470.103,96.875z"/>
<path fill="#21538F" d="M380.401,67.9c-3.503,0-6.342,2.838-6.342,6.34c0,3.504,2.839,6.342,6.342,6.342
	c3.501,0,6.341-2.838,6.341-6.342C386.742,70.738,383.902,67.9,380.401,67.9z M380.401,77.697c-1.909,0-3.457-1.549-3.457-3.457
	s1.548-3.455,3.457-3.455s3.457,1.547,3.457,3.455S382.311,77.697,380.401,77.697z"/>
<path fill="#21538F" d="M401.066,67.9c-3.502,0-6.34,2.838-6.34,6.34c0,3.504,2.838,6.342,6.34,6.342s6.341-2.838,6.341-6.342
	C407.407,70.738,404.568,67.9,401.066,67.9z M401.066,77.697c-1.909,0-3.457-1.549-3.457-3.457s1.548-3.455,3.457-3.455
	s3.457,1.547,3.457,3.455S402.976,77.697,401.066,77.697z"/>
<path fill="#21538F" d="M298.075,46.822c-3.503,0-6.342,2.84-6.342,6.34c0,3.504,2.839,6.342,6.342,6.342s6.342-2.838,6.342-6.342
	C304.417,49.662,301.578,46.822,298.075,46.822z M298.075,56.619c-1.909,0-3.457-1.549-3.457-3.457c0-1.906,1.548-3.455,3.457-3.455
	c1.91,0,3.457,1.549,3.457,3.455C301.532,55.07,299.985,56.619,298.075,56.619z"/>
<path fill="#21538F" d="M442.411,46.779c-3.502,0-6.342,2.838-6.342,6.34s2.84,6.342,6.342,6.342s6.341-2.84,6.341-6.342
	S445.913,46.779,442.411,46.779z M442.411,56.576c-1.909,0-3.457-1.549-3.457-3.457s1.548-3.457,3.457-3.457
	s3.458,1.549,3.458,3.457S444.32,56.576,442.411,56.576z"/>
<path fill="#21538F" d="M265.193,46.779c-3.501,0-6.34,2.838-6.34,6.34s2.839,6.342,6.34,6.342c3.503,0,6.342-2.84,6.342-6.342
	S268.696,46.779,265.193,46.779z M265.193,56.576c-1.908,0-3.456-1.549-3.456-3.457s1.548-3.457,3.456-3.457
	c1.91,0,3.458,1.549,3.458,3.457S267.104,56.576,265.193,56.576z"/>
<path fill="#21538F" d="M372.529,46.779c-3.501,0-6.341,2.838-6.341,6.34s2.84,6.342,6.341,6.342c3.502,0,6.342-2.84,6.342-6.342
	S376.031,46.779,372.529,46.779z M372.529,56.576c-1.908,0-3.456-1.549-3.456-3.457s1.548-3.457,3.456-3.457
	c1.91,0,3.458,1.549,3.458,3.457S374.439,56.576,372.529,56.576z"/>
<path fill="#21538F" d="M339.456,46.779c-3.502,0-6.341,2.838-6.341,6.34s2.839,6.342,6.341,6.342s6.342-2.84,6.342-6.342
	S342.958,46.779,339.456,46.779z M339.456,56.576c-1.908,0-3.456-1.549-3.456-3.457s1.548-3.457,3.456-3.457
	c1.91,0,3.458,1.549,3.458,3.457S341.366,56.576,339.456,56.576z"/>
<path fill="#21538F" d="M479.45,46.779c-3.501,0-6.341,2.838-6.341,6.34s2.839,6.342,6.341,6.342c3.502,0,6.341-2.84,6.341-6.342
	S482.952,46.779,479.45,46.779z M479.45,56.576c-1.909,0-3.457-1.549-3.457-3.457s1.548-3.457,3.457-3.457
	c1.909,0,3.457,1.549,3.457,3.457S481.358,56.576,479.45,56.576z"/>
<g>
</g>
<g>
</g>
<g>
</g>
<g>
</g>
<g>
</g>
<g>
</g>
</svg>
