<?xml version="1.0" encoding="utf-8"?>
<!-- Generator: Adobe Illustrator 16.0.0, SVG Export Plug-In . SVG Version: 6.00 Build 0)  -->
<!DOCTYPE svg PUBLIC "-//W3C//DTD SVG 1.1//EN" "http://www.w3.org/Graphics/SVG/1.1/DTD/svg11.dtd">
<svg version="1.1" id="Layer_1" xmlns="http://www.w3.org/2000/svg" xmlns:xlink="http://www.w3.org/1999/xlink" x="0px" y="0px"
	 width="166px" height="100px" viewBox="0 0 166 100" enable-background="new 0 0 166 100" xml:space="preserve">
<g>
	<g>
		<path fill="#285FAC" d="M14.271,20.055c-2.799,0-5.4,0.835-7.582,2.257v23.302c2.182,1.422,4.783,2.258,7.582,2.258
			c7.683,0,13.91-6.229,13.91-13.909S21.953,20.055,14.271,20.055z M14.271,41.545c-4.187,0-7.582-3.396-7.582-7.583
			c0-4.188,3.396-7.581,7.582-7.581c4.188,0,7.583,3.394,7.583,7.581C21.854,38.148,18.459,41.545,14.271,41.545z"/>
		<path fill="#285FAC" d="M84.771,20.055c-7.682,0-13.908,6.227-13.908,13.907s6.227,13.909,13.908,13.909
			c2.802,0,5.4-0.836,7.582-2.258V22.312C90.172,20.89,87.573,20.055,84.771,20.055z M84.771,41.545
			c-4.188,0-7.583-3.396-7.583-7.583c0-4.188,3.396-7.581,7.583-7.581s7.582,3.394,7.582,7.581
			C92.354,38.148,88.959,41.545,84.771,41.545z"/>
		<path fill="#285FAC" d="M117.853,26.381c4.188,0,7.581,3.393,7.583,7.579V22.312c-2.182-1.422-4.783-2.257-7.583-2.257
			c-7.681,0-13.905,6.227-13.905,13.907s6.225,13.909,13.905,13.909c2.8,0,5.401-0.834,7.583-2.258V33.965
			c-0.002,4.186-3.396,7.58-7.583,7.58c-4.186,0-7.581-3.396-7.581-7.583C110.271,29.774,113.667,26.381,117.853,26.381z"/>
		<path fill="#285FAC" d="M151.73,20.055c-7.684,0-13.91,6.227-13.91,13.907s6.227,13.909,13.91,13.909
			c7.68,0,13.908-6.229,13.908-13.909S159.41,20.055,151.73,20.055z M151.73,41.545c-4.188,0-7.582-3.396-7.582-7.583
			c0-4.188,3.395-7.581,7.582-7.581c4.186,0,7.582,3.394,7.582,7.581C159.312,38.148,155.916,41.545,151.73,41.545z"/>
	</g>
	<g>
		<rect x="33.442" y="20.488" fill="#9B9B9B" width="6.327" height="27.383"/>
		<rect x="46.341" y="0.389" fill="#9B9B9B" width="6.325" height="47.482"/>
		<polygon fill="#787878" points="125.436,33.962 125.436,33.96 125.436,33.965 		"/>
		<rect x="59.242" y="20.488" fill="#9B9B9B" width="6.325" height="27.383"/>
		<g>
			<polygon fill="#9B9B9B" points="0.361,33.962 0.361,62.77 6.688,62.77 6.688,45.613 6.688,22.312 6.688,20.488 0.361,20.488 			
				"/>
			<polygon fill="#9B9B9B" points="125.436,0.389 125.436,22.312 125.436,33.96 125.436,33.962 125.436,33.965 125.436,45.613 
				125.436,47.871 131.763,47.871 131.763,33.962 131.763,0.389 			"/>
			<polygon fill="#9B9B9B" points="92.354,22.312 92.354,45.613 92.354,47.871 98.68,47.871 98.68,33.962 98.68,20.488 
				92.354,20.488 			"/>
		</g>
	</g>
	<g>
		<path fill="#285FAC" d="M33.442,90.688h2.839c2.494,0,4.519,1.975,4.519,4.393c0,2.422-2.024,4.396-4.519,4.396h-2.839V90.688z
			 M39.7,95.08c0-1.814-1.53-3.32-3.419-3.32h-1.74v6.643h1.74C38.17,98.402,39.7,96.896,39.7,95.08z"/>
		<path fill="#285FAC" d="M43.204,90.688h1.11v8.788h-1.11V90.688z"/>
		<path fill="#285FAC" d="M54.775,93.82v3.891c-0.879,1.174-2.261,1.9-3.717,1.9c-2.53,0-4.592-2.062-4.592-4.604
			c0-2.531,2.062-4.594,4.592-4.594c1.247,0,2.407,0.496,3.26,1.357l-0.815,0.718c-0.643-0.642-1.519-0.987-2.444-0.987
			c-1.938,0-3.506,1.567-3.506,3.506c0,1.949,1.568,3.518,3.506,3.518c1.023,0,1.963-0.434,2.642-1.185v-2.433h-2.579V93.82H54.775z
			"/>
		<path fill="#285FAC" d="M57.5,90.688h1.112v8.788H57.5V90.688z"/>
		<path fill="#285FAC" d="M63.492,91.771H61.17v-1.084h5.754v1.084h-2.321v7.704h-1.11V91.771z"/>
		<path fill="#285FAC" d="M73.362,96.922H69.77l-0.975,2.554h-1.186l3.383-8.788h1.148l3.394,8.788h-1.196L73.362,96.922z
			 M71.572,92.279l-1.371,3.555h2.729L71.572,92.279z"/>
		<path fill="#285FAC" d="M77.332,90.688h1.112v7.715h4.815v1.073h-5.928V90.688z"/>
		<path fill="#285FAC" d="M94.126,99.465c-0.915-0.187-1.816-0.644-2.618-1.334l0.729-0.828c0.653,0.568,1.383,0.951,2.111,1.1
			c0.615,0.137,1.221,0.086,1.703-0.136c0.32-0.148,0.875-0.52,0.875-1.271c0-0.926-0.986-1.26-1.949-1.446
			c-0.086-0.012-1.469-0.295-2.024-0.615c-0.741-0.444-1.136-1.113-1.136-1.926c0-0.456,0.147-0.89,0.406-1.273
			c0.261-0.346,0.619-0.629,1.037-0.824c0.619-0.297,1.346-0.385,2.087-0.261c0.803,0.136,1.618,0.519,2.335,1.11l-0.705,0.853
			c-1.271-1.05-2.506-1.075-3.247-0.729c-0.507,0.235-0.802,0.669-0.802,1.113c0,0.838,0.714,1.158,1.852,1.405
			c0.469,0.112,1.443,0.272,2.023,0.606c0.803,0.443,1.224,1.135,1.224,1.987c0,0.507-0.136,0.974-0.421,1.382
			c-0.258,0.371-0.654,0.654-1.098,0.879c-0.47,0.232-0.951,0.308-1.494,0.308C94.717,99.563,94.421,99.525,94.126,99.465z"/>
		<path fill="#285FAC" d="M108.909,95.02c0,2.53-2.073,4.579-4.604,4.579s-4.592-2.049-4.592-4.579c0-2.543,2.061-4.605,4.592-4.605
			S108.909,92.477,108.909,95.02z M107.786,95.02c0-1.926-1.557-3.518-3.481-3.518c-1.926,0-3.482,1.592-3.482,3.518
			c0,1.912,1.557,3.494,3.482,3.494C106.229,98.514,107.786,96.932,107.786,95.02z"/>
		<path fill="#285FAC" d="M110.883,90.688h1.11v7.715h4.815v1.073h-5.926V90.688z"/>
		<path fill="#285FAC" d="M124.988,90.688v5.567c0,1.851-1.507,3.344-3.358,3.344c-1.839,0-3.346-1.493-3.346-3.344v-5.567h1.101
			v5.567c0,1.247,1.012,2.271,2.245,2.271c1.246,0,2.247-1.023,2.247-2.271v-5.567H124.988z"/>
		<path fill="#285FAC" d="M129.131,91.771h-2.318v-1.084h5.75v1.084h-2.318v7.704h-1.113V91.771z"/>
		<path fill="#285FAC" d="M135.127,90.688h1.113v8.788h-1.113V90.688z"/>
		<path fill="#285FAC" d="M147.711,95.02c0,2.53-2.074,4.579-4.604,4.579c-2.532,0-4.596-2.049-4.596-4.579
			c0-2.543,2.063-4.605,4.596-4.605C145.637,90.414,147.711,92.477,147.711,95.02z M146.586,95.02c0-1.926-1.555-3.518-3.479-3.518
			c-1.928,0-3.482,1.592-3.482,3.518c0,1.912,1.555,3.494,3.482,3.494C145.031,98.514,146.586,96.932,146.586,95.02z"/>
		<path fill="#285FAC" d="M150.857,92.527v6.948h-1.113v-8.788h1.21l4.692,6.949v-6.949h1.109v8.788h-1.195L150.857,92.527z"/>
		<path fill="#285FAC" d="M161.496,99.465c-0.914-0.187-1.816-0.644-2.619-1.334l0.729-0.828c0.654,0.568,1.383,0.951,2.111,1.1
			c0.617,0.137,1.223,0.086,1.703-0.136c0.322-0.148,0.877-0.52,0.877-1.271c0-0.926-0.988-1.26-1.951-1.446
			c-0.086-0.012-1.469-0.295-2.023-0.615c-0.742-0.444-1.137-1.113-1.137-1.926c0-0.456,0.148-0.89,0.408-1.273
			c0.26-0.346,0.617-0.629,1.035-0.824c0.619-0.297,1.346-0.385,2.088-0.261c0.803,0.136,1.617,0.519,2.334,1.11l-0.703,0.853
			c-1.273-1.05-2.508-1.075-3.248-0.729c-0.508,0.235-0.803,0.669-0.803,1.113c0,0.838,0.717,1.158,1.852,1.405
			c0.469,0.112,1.443,0.272,2.023,0.606c0.803,0.443,1.225,1.135,1.225,1.987c0,0.507-0.137,0.974-0.422,1.382
			c-0.26,0.371-0.654,0.654-1.098,0.879c-0.469,0.232-0.951,0.308-1.494,0.308C162.088,99.563,161.791,99.525,161.496,99.465z"/>
	</g>
</g>
</svg>
