<?xml version="1.0" encoding="utf-8"?>
<!-- Generator: Adobe Illustrator 16.0.0, SVG Export Plug-In . SVG Version: 6.00 Build 0)  -->
<!DOCTYPE svg PUBLIC "-//W3C//DTD SVG 1.1//EN" "http://www.w3.org/Graphics/SVG/1.1/DTD/svg11.dtd">
<svg version="1.1" id="Layer_1" xmlns="http://www.w3.org/2000/svg" xmlns:xlink="http://www.w3.org/1999/xlink" x="0px" y="0px"
	 width="136px" height="136px" viewBox="0 0 136 136" enable-background="new 0 0 136 136" xml:space="preserve">
<rect y="-0.221" fill="#FFFFFF" width="136.441" height="136.441"/>
<path fill="#285FAC" d="M68.22,47.541c-3.651,0-7.045,1.09-9.888,2.945v30.389c2.843,1.855,6.236,2.943,9.888,2.943
	c10.017,0,18.14-8.121,18.14-18.139C86.359,55.664,78.236,47.541,68.22,47.541z M68.22,75.566c-5.46,0-9.888-4.428-9.888-9.887
	c0-5.461,4.428-9.887,9.888-9.887s9.887,4.426,9.887,9.887C78.106,71.139,73.68,75.566,68.22,75.566z"/>
<polygon fill="#9B9B9B" points="50.081,65.68 50.081,103.25 58.332,103.25 58.332,80.875 58.332,50.488 58.332,48.107 
	50.081,48.107 "/>
</svg>
