<?xml version="1.0" encoding="utf-8"?>
<!-- Generator: Adobe Illustrator 16.0.0, SVG Export Plug-In . SVG Version: 6.00 Build 0)  -->
<!DOCTYPE svg PUBLIC "-//W3C//DTD SVG 1.1//EN" "http://www.w3.org/Graphics/SVG/1.1/DTD/svg11.dtd">
<svg version="1.1" id="Layer_1" xmlns="http://www.w3.org/2000/svg" xmlns:xlink="http://www.w3.org/1999/xlink" x="0px" y="0px"
	 width="106.636px" height="62px" viewBox="0 0 106.636 62" enable-background="new 0 0 106.636 62" xml:space="preserve">
<g>
	<g>
		<path fill="#FFFFFF" d="M9.297,12.817c-1.705,0-3.292,0.51-4.621,1.376v14.201c1.329,0.866,2.916,1.375,4.621,1.375
			c4.68,0,8.477-3.795,8.477-8.476C17.773,16.612,13.977,12.817,9.297,12.817z M9.297,25.913c-2.552,0-4.621-2.068-4.621-4.619
			c0-2.553,2.069-4.621,4.621-4.621s4.62,2.068,4.62,4.621C13.917,23.845,11.849,25.913,9.297,25.913z"/>
		<path fill="#FFFFFF" d="M52.262,12.817c-4.683,0-8.476,3.795-8.476,8.477c0,4.681,3.793,8.476,8.476,8.476
			c1.706,0,3.29-0.509,4.62-1.375v-14.2C55.552,13.327,53.968,12.817,52.262,12.817z M52.262,25.913
			c-2.553,0-4.622-2.068-4.622-4.619c0-2.553,2.069-4.621,4.622-4.621c2.552,0,4.62,2.068,4.62,4.621
			C56.882,23.845,54.813,25.913,52.262,25.913z"/>
		<path fill="#FFFFFF" d="M72.42,16.673c2.554,0,4.621,2.067,4.623,4.619v-7.099c-1.33-0.866-2.914-1.376-4.623-1.376
			c-4.678,0-8.473,3.795-8.473,8.477c0,4.681,3.795,8.476,8.473,8.476c1.709,0,3.293-0.508,4.623-1.375v-7.099
			c-0.002,2.551-2.069,4.617-4.623,4.617c-2.549,0-4.619-2.068-4.619-4.619C67.801,18.741,69.871,16.673,72.42,16.673z"/>
		<path fill="#FFFFFF" d="M93.067,12.817c-4.684,0-8.477,3.795-8.477,8.477c0,4.681,3.793,8.476,8.477,8.476
			c4.681,0,8.476-3.795,8.476-8.476C101.543,16.612,97.748,12.817,93.067,12.817z M93.067,25.913c-2.552,0-4.621-2.068-4.621-4.619
			c0-2.553,2.069-4.621,4.621-4.621c2.551,0,4.62,2.068,4.62,4.621C97.688,23.845,95.618,25.913,93.067,25.913z"/>
	</g>
	<g>
		<rect x="20.979" y="13.082" fill="#9B9B9B" width="3.857" height="16.688"/>
		<rect x="28.841" y="0.833" fill="#9B9B9B" width="3.853" height="28.937"/>
		<polygon fill="#787878" points="77.043,21.294 77.043,21.292 77.043,21.296 		"/>
		<rect x="36.704" y="13.082" fill="#9B9B9B" width="3.854" height="16.688"/>
		<g>
			<polygon fill="#9B9B9B" points="0.82,21.294 0.82,38.85 4.676,38.85 4.676,28.395 4.676,14.194 4.676,13.082 0.82,13.082 			"/>
			<polygon fill="#9B9B9B" points="77.043,0.833 77.043,14.193 77.043,21.292 77.043,21.294 77.043,21.296 77.043,28.395 
				77.043,29.77 80.898,29.77 80.898,21.294 80.898,0.833 			"/>
			<polygon fill="#9B9B9B" points="56.882,14.194 56.882,28.395 56.882,29.77 60.737,29.77 60.737,21.294 60.737,13.082 
				56.882,13.082 			"/>
		</g>
	</g>
	<g>
		<path fill="#FFFFFF" d="M105.902,10.853c0,0.607-0.217,1.124-0.639,1.55c-0.424,0.427-0.937,0.641-1.54,0.641
			c-0.602,0-1.118-0.214-1.546-0.643c-0.424-0.428-0.635-0.944-0.635-1.554c0-0.338,0.068-0.646,0.206-0.922
			c0.139-0.296,0.333-0.546,0.582-0.751c0.407-0.337,0.862-0.504,1.368-0.504c0.335,0,0.64,0.062,0.912,0.189
			c0.386,0.17,0.696,0.438,0.931,0.805C105.783,10.031,105.902,10.429,105.902,10.853z M103.706,8.989
			c-0.495,0-0.922,0.183-1.278,0.549c-0.358,0.368-0.536,0.806-0.536,1.311c0,0.52,0.178,0.96,0.536,1.329
			c0.356,0.366,0.79,0.549,1.296,0.549c0.504,0,0.934-0.182,1.29-0.547c0.356-0.367,0.532-0.81,0.532-1.327
			c0-0.277-0.067-0.564-0.208-0.859c-0.139-0.278-0.322-0.499-0.55-0.663C104.466,9.103,104.106,8.989,103.706,8.989z
			 M103.937,11.065l0.819,1.051h-0.588l-0.748-0.998v0.998h-0.484V9.599h0.503c0.354,0,0.611,0.063,0.774,0.186
			c0.176,0.146,0.269,0.333,0.269,0.569c0,0.159-0.052,0.306-0.146,0.438c-0.096,0.133-0.218,0.219-0.366,0.261L103.937,11.065z
			 M103.417,10.716h0.081c0.345,0,0.519-0.119,0.519-0.357c0-0.221-0.168-0.331-0.501-0.331h-0.099V10.716z"/>
	</g>
	<g>
		<path fill="#FFFFFF" d="M20.979,55.862h1.73c1.521,0,2.754,1.204,2.754,2.677c0,1.477-1.233,2.68-2.754,2.68h-1.73V55.862z
			 M24.794,58.539c0-1.104-0.933-2.022-2.084-2.022h-1.062v4.048h1.062C23.861,60.564,24.794,59.646,24.794,58.539z"/>
		<path fill="#FFFFFF" d="M26.929,55.862h0.677v5.356h-0.677V55.862z"/>
		<path fill="#FFFFFF" d="M33.98,57.772v2.372c-0.535,0.714-1.377,1.157-2.266,1.157c-1.541,0-2.797-1.257-2.797-2.807
			c0-1.542,1.256-2.8,2.797-2.8c0.761,0,1.469,0.302,1.987,0.828l-0.496,0.438c-0.393-0.392-0.926-0.602-1.491-0.602
			c-1.18,0-2.136,0.955-2.136,2.136c0,1.188,0.956,2.144,2.136,2.144c0.625,0,1.197-0.264,1.61-0.722v-1.481h-1.571v-0.663H33.98z"
			/>
		<path fill="#FFFFFF" d="M35.642,55.862h0.677v5.356h-0.677V55.862z"/>
		<path fill="#FFFFFF" d="M39.294,56.523h-1.415v-0.661h3.505v0.661H39.97v4.695h-0.676V56.523z"/>
		<path fill="#FFFFFF" d="M45.308,59.662h-2.189l-0.594,1.557h-0.723l2.062-5.356h0.699l2.069,5.356h-0.729L45.308,59.662z
			 M44.218,56.833l-0.836,2.166h1.663L44.218,56.833z"/>
		<path fill="#FFFFFF" d="M47.729,55.862h0.676v4.702h2.936v0.654h-3.611V55.862z"/>
		<path fill="#FFFFFF" d="M57.962,61.212c-0.559-0.113-1.106-0.393-1.596-0.813l0.444-0.504c0.397,0.346,0.842,0.579,1.286,0.67
			c0.376,0.082,0.745,0.052,1.038-0.082c0.194-0.091,0.534-0.317,0.534-0.776c0-0.563-0.603-0.767-1.189-0.881
			c-0.052-0.007-0.894-0.181-1.231-0.375c-0.453-0.271-0.693-0.678-0.693-1.173c0-0.278,0.089-0.544,0.248-0.776
			c0.158-0.212,0.376-0.383,0.633-0.504c0.375-0.18,0.817-0.233,1.271-0.157c0.489,0.083,0.985,0.315,1.423,0.677l-0.43,0.52
			c-0.775-0.641-1.527-0.655-1.979-0.445c-0.31,0.143-0.489,0.408-0.489,0.679c0,0.51,0.435,0.706,1.128,0.856
			c0.286,0.069,0.88,0.167,1.233,0.369c0.49,0.271,0.745,0.691,0.745,1.211c0,0.31-0.082,0.595-0.255,0.843
			c-0.157,0.226-0.399,0.397-0.671,0.535c-0.285,0.143-0.578,0.188-0.908,0.188C58.322,61.272,58.142,61.248,57.962,61.212z"/>
		<path fill="#FFFFFF" d="M66.971,58.502c0,1.543-1.264,2.791-2.806,2.791s-2.799-1.248-2.799-2.791
			c0-1.549,1.257-2.807,2.799-2.807S66.971,56.953,66.971,58.502z M66.287,58.502c0-1.173-0.95-2.143-2.122-2.143
			c-1.173,0-2.122,0.97-2.122,2.143c0,1.166,0.949,2.13,2.122,2.13C65.337,60.632,66.287,59.668,66.287,58.502z"/>
		<path fill="#FFFFFF" d="M68.174,55.862h0.676v4.702h2.936v0.654h-3.611V55.862z"/>
		<path fill="#FFFFFF" d="M76.771,55.862v3.394c0,1.128-0.92,2.037-2.048,2.037c-1.121,0-2.038-0.909-2.038-2.037v-3.394h0.669
			v3.394c0,0.76,0.618,1.383,1.369,1.383c0.76,0,1.37-0.623,1.37-1.383v-3.394H76.771z"/>
		<path fill="#FFFFFF" d="M79.295,56.523h-1.413v-0.661h3.503v0.661h-1.413v4.695h-0.677V56.523z"/>
		<path fill="#FFFFFF" d="M82.948,55.862h0.678v5.356h-0.678V55.862z"/>
		<path fill="#FFFFFF" d="M90.617,58.502c0,1.543-1.264,2.791-2.805,2.791c-1.543,0-2.801-1.248-2.801-2.791
			c0-1.549,1.258-2.807,2.801-2.807C89.354,55.695,90.617,56.953,90.617,58.502z M89.933,58.502c0-1.173-0.947-2.143-2.12-2.143
			c-1.175,0-2.123,0.97-2.123,2.143c0,1.166,0.948,2.13,2.123,2.13C88.985,60.632,89.933,59.668,89.933,58.502z"/>
		<path fill="#FFFFFF" d="M92.534,56.983v4.235h-0.677v-5.356h0.736l2.859,4.235v-4.235h0.677v5.356H95.4L92.534,56.983z"/>
		<path fill="#FFFFFF" d="M99.019,61.212c-0.558-0.113-1.108-0.393-1.597-0.813l0.445-0.504c0.397,0.346,0.841,0.579,1.286,0.67
			c0.375,0.082,0.745,0.052,1.038-0.082c0.196-0.091,0.533-0.317,0.533-0.776c0-0.563-0.602-0.767-1.188-0.881
			c-0.053-0.007-0.896-0.181-1.233-0.375c-0.45-0.271-0.692-0.678-0.692-1.173c0-0.278,0.09-0.544,0.249-0.776
			c0.157-0.212,0.376-0.383,0.632-0.504c0.376-0.18,0.82-0.233,1.271-0.157c0.489,0.083,0.985,0.315,1.424,0.677l-0.432,0.52
			c-0.773-0.641-1.525-0.655-1.978-0.445c-0.309,0.143-0.488,0.408-0.488,0.679c0,0.51,0.437,0.706,1.129,0.856
			c0.285,0.069,0.879,0.167,1.232,0.369c0.489,0.271,0.745,0.691,0.745,1.211c0,0.31-0.083,0.595-0.256,0.843
			c-0.158,0.226-0.398,0.397-0.668,0.535c-0.286,0.143-0.581,0.188-0.911,0.188C99.379,61.272,99.197,61.248,99.019,61.212z"/>
	</g>
</g>
</svg>
