<?xml version="1.0" encoding="utf-8"?>
<!-- Generator: Adobe Illustrator 16.0.0, SVG Export Plug-In . SVG Version: 6.00 Build 0)  -->
<!DOCTYPE svg PUBLIC "-//W3C//DTD SVG 1.1//EN" "http://www.w3.org/Graphics/SVG/1.1/DTD/svg11.dtd">
<svg version="1.1" id="Layer_1" xmlns="http://www.w3.org/2000/svg" xmlns:xlink="http://www.w3.org/1999/xlink" x="0px" y="0px"
	 width="118px" height="80px" viewBox="0 0 118 80" enable-background="new 0 0 118 80" xml:space="preserve">
<g>
	<path fill="#fff" d="M108,20H10C4.478,20,0,15.522,0,10S4.478,0,10,0h98c5.522,0,10,4.478,10,10S113.522,20,108,20z"/>
</g>
<g>
	<path fill="#fff" d="M108,50H10C4.478,50,0,45.522,0,40s4.478-10,10-10h98c5.522,0,10,4.478,10,10S113.522,50,108,50z"/>
</g>
<g>
	<path fill="#fff" d="M108,80H10C4.478,80,0,75.522,0,70s4.478-10,10-10h98c5.522,0,10,4.478,10,10S113.522,80,108,80z"/>
</g>
</svg>
