<?xml version="1.0" encoding="utf-8"?>
<!-- Generator: Adobe Illustrator 16.0.0, SVG Export Plug-In . SVG Version: 6.00 Build 0)  -->
<!DOCTYPE svg PUBLIC "-//W3C//DTD SVG 1.1//EN" "http://www.w3.org/Graphics/SVG/1.1/DTD/svg11.dtd">
<svg version="1.1" id="Isolation_Mode" xmlns="http://www.w3.org/2000/svg" xmlns:xlink="http://www.w3.org/1999/xlink" x="0px"
	 y="0px" width="121px" height="121px" viewBox="0 0 121 121" enable-background="new 0 0 121 121" xml:space="preserve">
<path fill="#FFFFFF" d="M60.499,0.319c-33.238,0-60.182,26.941-60.182,60.184c0,33.236,26.943,60.178,60.182,60.178
	s60.184-26.941,60.184-60.178C120.683,27.26,93.737,0.319,60.499,0.319z"/>
<polygon fill="#135DB7" points="57.28,71.005 41.88,55.604 35.38,62.103 21.706,76.671 19.226,74.343 32.938,59.731 41.88,50.789 
	57.28,66.192 59.237,64.237 61.642,66.646 "/>
<path fill="#135DB7" d="M84.579,76.704L73.388,65.397c-1.148,0.687-2.486,1.089-3.918,1.089c-4.232,0-7.662-3.432-7.662-7.664
	c0-4.227,3.43-7.659,7.662-7.659c4.227,0,7.658,3.432,7.658,7.659c0,1.563-0.469,3.016-1.273,4.223l11.146,11.263L84.579,76.704z"/>
<polygon fill="#135DB7" points="94.579,62.103 80.384,47.902 77.288,50.997 74.88,48.588 80.384,43.088 96.991,59.693 "/>
<path fill="#FFFFFF" d="M69.47,54.647c-2.307,0-4.182,1.869-4.182,4.175c0,2.305,1.875,4.18,4.182,4.18
	c0.463,0,0.9-0.096,1.316-0.237c0.553-0.185,1.055-0.483,1.477-0.856c0.014-0.015,0.027-0.024,0.041-0.039
	c0.189-0.169,0.355-0.363,0.512-0.571c0.02-0.03,0.049-0.053,0.066-0.081c0.164-0.233,0.309-0.484,0.42-0.748
	c0.221-0.507,0.34-1.062,0.34-1.647C73.642,56.517,71.776,54.647,69.47,54.647z"/>
</svg>
