<?xml version="1.0" encoding="utf-8"?>
<!-- Generator: Adobe Illustrator 16.0.0, SVG Export Plug-In . SVG Version: 6.00 Build 0)  -->
<!DOCTYPE svg PUBLIC "-//W3C//DTD SVG 1.1//EN" "http://www.w3.org/Graphics/SVG/1.1/DTD/svg11.dtd">
<svg version="1.1" id="Isolation_Mode" xmlns="http://www.w3.org/2000/svg" xmlns:xlink="http://www.w3.org/1999/xlink" x="0px"
	 y="0px" width="121px" height="121px" viewBox="0 0 121 121" enable-background="new 0 0 121 121" xml:space="preserve">
<path fill="#FFFFFF" d="M60.499,0.317c-33.236,0-60.182,26.944-60.182,60.184c0,33.236,26.945,60.182,60.182,60.182
	c33.237,0,60.185-26.945,60.185-60.182C120.684,27.261,93.736,0.317,60.499,0.317z"/>
<circle fill="#135DB7" cx="60.501" cy="52.044" r="7.659"/>
<path fill="#135DB7" d="M46.657,89.204c-2.389,2.385-6.263,2.385-8.651,0c-2.39-2.393-2.39-6.266,0-8.654
	c1.979-1.979,4.973-2.314,7.3-1.014l3.553-1.186l-1.184,3.551C48.972,84.231,48.636,87.226,46.657,89.204z"/>
<path fill="#135DB7" d="M45.306,40.88c-2.327,1.298-5.321,0.961-7.3-1.018c-2.39-2.388-2.39-6.261,0-8.649
	c2.389-2.391,6.263-2.391,8.651,0c1.979,1.976,2.314,4.97,1.018,7.298l1.184,3.552L45.306,40.88z"/>
<path fill="#135DB7" d="M67.718,73.341c0-3.988-3.23-7.219-7.219-7.219c-3.986,0-7.215,3.231-7.215,7.219h-3.977
	c0.188-6.027,5.121-10.854,11.193-10.854c6.071,0,11.003,4.827,11.193,10.854H67.718z"/>
<path fill="#135DB7" d="M83.182,89.204c-2.391,2.385-6.263,2.385-8.653,0c-1.978-1.979-2.314-4.973-1.018-7.303l-1.183-3.551
	l3.55,1.186c2.328-1.301,5.325-0.965,7.304,1.014C85.567,82.938,85.567,86.812,83.182,89.204z"/>
<path fill="#135DB7" d="M83.182,39.863c-1.979,1.979-4.976,2.315-7.304,1.018l-3.55,1.184l1.183-3.552
	c-1.297-2.328-0.96-5.322,1.018-7.298c2.391-2.391,6.263-2.391,8.653,0C85.567,33.602,85.567,37.475,83.182,39.863z"/>
<circle fill="#FFFFFF" cx="60.501" cy="52.044" r="4.176"/>
</svg>
