<?xml version="1.0" encoding="utf-8"?>
<!-- Generator: Adobe Illustrator 16.0.0, SVG Export Plug-In . SVG Version: 6.00 Build 0)  -->
<!DOCTYPE svg PUBLIC "-//W3C//DTD SVG 1.1//EN" "http://www.w3.org/Graphics/SVG/1.1/DTD/svg11.dtd">
<svg version="1.1" id="Isolation_Mode" xmlns="http://www.w3.org/2000/svg" xmlns:xlink="http://www.w3.org/1999/xlink" x="0px"
	 y="0px" width="121px" height="121px" viewBox="0 0 121 121" enable-background="new 0 0 121 121" xml:space="preserve">
<path fill="#FFFFFF" d="M60.499,0.317c-33.236,0-60.184,26.944-60.184,60.184c0,33.236,26.947,60.182,60.184,60.182
	c33.238,0,60.186-26.945,60.186-60.182C120.685,27.261,93.737,0.317,60.499,0.317z"/>
<path fill="#135DB7" d="M29.982,49.2V33.525c0-2.852,2.318-5.171,5.169-5.171h0.919h0.264h1.629v3.194H36.07v-0.001h-0.919
	c-1.09,0-1.979,0.888-1.979,1.978V49.2c0,5.491,4.47,9.959,9.96,9.959s9.953-4.468,9.953-9.959V33.525
	c0-1.09-0.885-1.978-1.974-1.978h-0.822v0.001h-1.894v-3.194h1.599h0.295h0.822c2.851,0,5.169,2.319,5.169,5.171V49.2
	c0,7.252-5.897,13.152-13.148,13.152S29.982,56.452,29.982,49.2z"/>
<path fill="#135DB7" d="M83.336,77.376c0,11.557-9.399,20.955-20.954,20.955c-11.554,0-20.955-9.398-20.955-20.955V65.611h3.404
	v11.765c0,9.678,7.871,17.553,17.551,17.553s17.551-7.875,17.551-17.553v-1.395h3.403V77.376z"/>
<path fill="#135DB7" d="M81.637,72.722c-4.231,0-7.664-3.431-7.664-7.66c0-4.23,3.433-7.66,7.664-7.66
	c4.228,0,7.659,3.43,7.659,7.66C89.296,69.291,85.864,72.722,81.637,72.722z"/>
<circle fill="#FFFFFF" cx="81.637" cy="65.062" r="4.176"/>
</svg>
