<?xml version="1.0" encoding="utf-8"?>
<!-- Generator: Adobe Illustrator 16.0.0, SVG Export Plug-In . SVG Version: 6.00 Build 0)  -->
<!DOCTYPE svg PUBLIC "-//W3C//DTD SVG 1.1//EN" "http://www.w3.org/Graphics/SVG/1.1/DTD/svg11.dtd">
<svg version="1.1" id="Layer_1" xmlns="http://www.w3.org/2000/svg" xmlns:xlink="http://www.w3.org/1999/xlink" x="0px" y="0px"
	 width="37px" height="56px" viewBox="0 0 37 56" enable-background="new 0 0 37 56" xml:space="preserve">
<g>
	<path fill="#FFFFFF" d="M18.5,0.146c-3.652,0-7.045,1.088-9.889,2.943v30.389c2.844,1.855,6.236,2.943,9.889,2.943
		c10.016,0,18.139-8.121,18.139-18.137C36.639,8.268,28.516,0.146,18.5,0.146z M18.5,28.172c-5.461,0-9.889-4.428-9.889-9.887
		c0-5.463,4.428-9.889,9.889-9.889c5.459,0,9.887,4.426,9.887,9.889C28.387,23.744,23.959,28.172,18.5,28.172z"/>
	<polygon fill="#9B9B9B" points="0.361,18.285 0.361,55.854 8.611,55.854 8.611,33.479 8.611,3.092 8.611,0.711 0.361,0.711 	"/>
</g>
</svg>
