<?xml version="1.0" encoding="utf-8"?>
<!-- Generator: Adobe Illustrator 16.0.0, SVG Export Plug-In . SVG Version: 6.00 Build 0)  -->
<!DOCTYPE svg PUBLIC "-//W3C//DTD SVG 1.1//EN" "http://www.w3.org/Graphics/SVG/1.1/DTD/svg11.dtd">
<svg version="1.1" id="Isolation_Mode" xmlns="http://www.w3.org/2000/svg" xmlns:xlink="http://www.w3.org/1999/xlink" x="0px"
	 y="0px" width="121px" height="121px" viewBox="0 0 121 121" enable-background="new 0 0 121 121" xml:space="preserve">
<path fill="#FFFFFF" d="M60.498,0.315c-33.238,0-60.18,26.942-60.18,60.185c0,33.237,26.941,60.185,60.18,60.185
	c33.237,0,60.184-26.947,60.184-60.185C120.682,27.258,93.735,0.315,60.498,0.315z"/>
<rect x="12.596" y="67.784" fill="#135DB7" width="4.81" height="4.814"/>
<rect x="79.989" y="20.38" fill="#135DB7" width="4.817" height="4.814"/>
<rect x="28.927" y="28.919" fill="#135DB7" width="4.819" height="4.813"/>
<rect x="26.285" y="86.991" fill="#135DB7" width="4.813" height="4.818"/>
<polygon fill="#135DB7" points="93.224,89.122 34.625,89.122 34.625,83.462 28.963,83.462 28.963,37.032 93.224,37.032 "/>
<rect x="88.433" y="28.919" fill="#135DB7" width="4.814" height="4.813"/>
<rect x="96.769" y="49.296" fill="#135DB7" width="4.813" height="4.818"/>
<path fill="#FFFFFF" d="M38.034,85.72h51.787V47.317H32.366v32.736h5.668V85.72z M61.34,58.356c4.228,0,7.658,3.427,7.658,7.659
	c0,4.23-3.431,7.658-7.658,7.658c-4.236,0-7.662-3.428-7.662-7.658C53.678,61.783,57.104,58.356,61.34,58.356z"/>
<path fill="#FFFFFF" d="M61.34,70.188c2.301,0,4.169-1.869,4.169-4.174c0-2.306-1.868-4.175-4.169-4.175
	c-2.311,0-4.179,1.869-4.179,4.175C57.161,68.319,59.029,70.188,61.34,70.188z"/>
<rect x="32.366" y="40.436" fill="#FFFFFF" width="57.455" height="3.478"/>
</svg>
