<?xml version="1.0" encoding="utf-8"?>
<!-- Generator: Adobe Illustrator 16.0.0, SVG Export Plug-In . SVG Version: 6.00 Build 0)  -->
<!DOCTYPE svg PUBLIC "-//W3C//DTD SVG 1.1//EN" "http://www.w3.org/Graphics/SVG/1.1/DTD/svg11.dtd">
<svg version="1.1" id="Isolation_Mode" xmlns="http://www.w3.org/2000/svg" xmlns:xlink="http://www.w3.org/1999/xlink" x="0px"
	 y="0px" width="121px" height="121px" viewBox="0 0 121 121" enable-background="new 0 0 121 121" xml:space="preserve">
<g>
	<path fill="#FFFFFF" d="M60.5,0.315C27.261,0.315,0.315,27.262,0.315,60.5c0,33.237,26.945,60.185,60.185,60.185
		c33.236,0,60.185-26.947,60.185-60.185C120.685,27.262,93.736,0.315,60.5,0.315z"/>
</g>
<circle fill="#135DB7" cx="72.499" cy="37.069" r="3.832"/>
<polygon fill="#135DB7" points="67.514,42.08 70.213,44.16 66.566,48.878 63.874,46.801 "/>
<rect x="47.135" y="39.426" transform="matrix(0.711 -0.7032 0.7032 0.711 -17.569 47.3682)" fill="#135DB7" width="3.408" height="11.262"/>
<path fill="#135DB7" d="M39.422,31.04c2.498,0,4.525,2.026,4.525,4.527c0,2.502-2.027,4.527-4.525,4.527
	c-2.504,0-4.53-2.025-4.53-4.527C34.892,33.065,36.918,31.04,39.422,31.04z"/>
<path fill="#135DB7" d="M33.306,85.745c-3.568,0-6.455-2.887-6.455-6.445c0-3.564,2.887-6.451,6.455-6.451
	c3.56,0,6.447,2.887,6.447,6.451C39.753,82.858,36.865,85.745,33.306,85.745z"/>
<rect x="43.855" y="61.003" transform="matrix(0.6121 0.7908 -0.7908 0.6121 71.3428 -9.6987)" fill="#135DB7" width="3.403" height="13.724"/>
<path fill="#135DB7" d="M59.833,65.051c-4.236,0-7.664-3.429-7.664-7.661c0-4.229,3.428-7.659,7.664-7.659
	c4.226,0,7.658,3.43,7.658,7.659C67.491,61.622,64.059,65.051,59.833,65.051z"/>
<polygon fill="#135DB7" points="67.646,65.13 72.876,78.062 69.72,79.339 64.488,66.401 "/>
<path fill="#135DB7" d="M74.761,94.003c-3.513,0-6.356-2.85-6.356-6.363c0-3.508,2.844-6.357,6.356-6.357
	c3.512,0,6.357,2.85,6.357,6.357C81.118,91.153,78.272,94.003,74.761,94.003z"/>
<rect x="74.692" y="49.892" transform="matrix(0.1086 0.9941 -0.9941 0.1086 123.3321 -26.4149)" fill="#135DB7" width="3.407" height="11.345"/>
<circle fill="#135DB7" cx="89.509" cy="52.871" r="4.519"/>
<path fill="#FFFFFF" d="M59.833,53.215c-2.311,0-4.181,1.87-4.181,4.175c0,2.305,1.87,4.177,4.181,4.177
	c2.3,0,4.173-1.873,4.173-4.177C64.006,55.084,62.133,53.215,59.833,53.215z"/>
</svg>
