<?xml version="1.0" encoding="utf-8"?>
<!-- Generator: Adobe Illustrator 16.0.0, SVG Export Plug-In . SVG Version: 6.00 Build 0)  -->
<!DOCTYPE svg PUBLIC "-//W3C//DTD SVG 1.1//EN" "http://www.w3.org/Graphics/SVG/1.1/DTD/svg11.dtd">
<svg version="1.1" id="Isolation_Mode" xmlns="http://www.w3.org/2000/svg" xmlns:xlink="http://www.w3.org/1999/xlink" x="0px"
	 y="0px" width="121px" height="121px" viewBox="0 0 121 121" enable-background="new 0 0 121 121" xml:space="preserve">
<g>
	<path fill="#FFFFFF" d="M60.5,0.315C27.264,0.315,0.316,27.263,0.316,60.5c0,33.238,26.947,60.185,60.184,60.185
		c33.237,0,60.184-26.946,60.184-60.185C120.684,27.263,93.737,0.315,60.5,0.315z"/>
</g>
<path fill="#135DB7" d="M76.256,30.008c-4.224,0-7.657,3.428-7.657,7.658c0,4.231,3.434,7.663,7.657,7.663
	c4.233,0,7.666-3.432,7.666-7.663C83.922,33.436,80.489,30.008,76.256,30.008z M76.256,41.841c-2.303,0-4.173-1.869-4.173-4.175
	c0-2.305,1.87-4.175,4.173-4.175c2.312,0,4.181,1.87,4.181,4.175C80.437,39.972,78.567,41.841,76.256,41.841z"/>
<path fill="#135DB7" d="M47.745,83.585c-4.232,0-7.666,3.428-7.666,7.659c0,4.23,3.434,7.663,7.666,7.663
	c4.231,0,7.657-3.433,7.657-7.663C55.402,87.013,51.977,83.585,47.745,83.585z M47.745,95.419c-2.312,0-4.177-1.87-4.177-4.175
	c0-2.306,1.865-4.176,4.177-4.176c2.304,0,4.173,1.87,4.173,4.176C51.918,93.549,50.049,95.419,47.745,95.419z"/>
<polygon fill="#135DB7" points="42.399,20.376 44.809,17.971 49.023,22.184 53.233,17.971 55.64,20.376 51.425,24.589 55.64,28.801 
	53.233,31.209 49.023,26.998 44.809,31.209 42.399,28.801 46.61,24.589 "/>
<polygon fill="#135DB7" points="27.149,64.713 24.74,67.123 20.525,62.909 16.315,67.123 13.909,64.713 18.122,60.5 13.909,56.287 
	16.315,53.878 20.525,58.091 24.74,53.878 27.149,56.287 22.937,60.5 "/>
<polygon fill="#135DB7" points="53.196,61.669 48.985,65.881 46.58,63.472 50.792,59.26 46.58,55.047 48.985,52.638 53.196,56.851 
	57.408,52.638 59.817,55.047 55.602,59.26 59.817,63.472 57.408,65.881 "/>
<path fill="#135DB7" d="M58.257,86.496l-0.596-3.138c0.014,0,1.249-0.242,3.11-0.849l0.982,3.035
	C59.691,86.218,58.312,86.48,58.257,86.496z"/>
<path fill="#135DB7" d="M65.03,84.318l-1.246-2.939c1.021-0.43,2.007-0.904,2.95-1.406l1.505,2.815
	C67.214,83.338,66.134,83.85,65.03,84.318z"/>
<path fill="#135DB7" d="M78.742,66.015l3.086,0.823c-0.317,1.183-0.724,2.339-1.222,3.446l-2.91-1.307
	C78.122,68.027,78.474,67.033,78.742,66.015z"/>
<path fill="#135DB7" d="M78.597,53.434l3.105-0.739c0.281,1.18,0.502,2.358,0.655,3.499l-3.161,0.43
	C79.056,55.587,78.851,54.513,78.597,53.434z"/>
<path fill="#135DB7" d="M79.315,62.962c0.094-0.848,0.148-1.729,0.148-2.613c0-0.188-0.006-0.378-0.012-0.568l3.189-0.065
	c0.006,0.213,0.009,0.426,0.009,0.634c0,1.004-0.055,2.002-0.165,2.973L79.315,62.962z"/>
<path fill="#135DB7" d="M71.25,80.979l-1.781-2.647c0.91-0.612,1.776-1.267,2.566-1.947l2.078,2.425
	C73.229,79.57,72.262,80.301,71.25,80.979z"/>
<path fill="#135DB7" d="M74.28,74.192c0.713-0.798,1.363-1.641,1.93-2.503l2.67,1.746c-0.653,1-1.4,1.971-2.221,2.883L74.28,74.192z
	"/>
<polygon fill="#135DB7" points="91.68,97.699 89.271,100.108 85.057,95.896 80.844,100.108 78.435,97.699 82.647,93.487 
	78.435,89.274 80.844,86.866 85.057,91.078 89.271,86.866 91.68,89.274 87.46,93.487 "/>
<polygon fill="#135DB7" points="106.696,56.197 102.484,51.984 98.271,56.197 95.861,53.793 100.075,49.58 95.861,45.362 
	98.271,42.958 102.484,47.171 106.696,42.958 109.105,45.362 104.896,49.58 109.105,53.793 "/>
</svg>
